solid ascii
  facet normal 1.000000e+00 0.000000e+00 -0.000000e+00
    outer loop
      vertex   -1.500000e+01 5.000000e+01 8.881784e-15
      vertex   -1.500000e+01 5.500000e+01 8.881784e-15
      vertex   -1.500000e+01 5.000000e+01 2.000000e+00
    endloop
  endfacet
  facet normal 1.000000e+00 -0.000000e+00 0.000000e+00
    outer loop
      vertex   -1.500000e+01 5.000000e+01 2.000000e+00
      vertex   -1.500000e+01 5.500000e+01 8.881784e-15
      vertex   -1.500000e+01 5.500000e+01 2.000000e+00
    endloop
  endfacet
  facet normal 0.000000e+00 -1.000000e+00 0.000000e+00
    outer loop
      vertex   -2.000000e+01 5.000000e+01 -8.881784e-15
      vertex   -1.500000e+01 5.000000e+01 8.881784e-15
      vertex   -2.000000e+01 5.000000e+01 2.000000e+00
    endloop
  endfacet
  facet normal 0.000000e+00 -1.000000e+00 0.000000e+00
    outer loop
      vertex   -2.000000e+01 5.000000e+01 2.000000e+00
      vertex   -1.500000e+01 5.000000e+01 8.881784e-15
      vertex   -1.500000e+01 5.000000e+01 2.000000e+00
    endloop
  endfacet
  facet normal 0.000000e+00 1.000000e+00 -0.000000e+00
    outer loop
      vertex   -1.000000e+01 6.000000e+01 8.881784e-15
      vertex   -1.500000e+01 6.000000e+01 8.881784e-15
      vertex   -1.000000e+01 6.000000e+01 2.000000e+00
    endloop
  endfacet
  facet normal 0.000000e+00 1.000000e+00 -0.000000e+00
    outer loop
      vertex   -1.000000e+01 6.000000e+01 2.000000e+00
      vertex   -1.500000e+01 6.000000e+01 8.881784e-15
      vertex   -1.500000e+01 6.000000e+01 2.000000e+00
    endloop
  endfacet
  facet normal 1.000000e+00 0.000000e+00 -0.000000e+00
    outer loop
      vertex   -1.000000e+01 5.500000e+01 0.000000e+00
      vertex   -1.000000e+01 6.000000e+01 8.881784e-15
      vertex   -1.000000e+01 5.500000e+01 2.000000e+00
    endloop
  endfacet
  facet normal 1.000000e+00 -0.000000e+00 0.000000e+00
    outer loop
      vertex   -1.000000e+01 5.500000e+01 2.000000e+00
      vertex   -1.000000e+01 6.000000e+01 8.881784e-15
      vertex   -1.000000e+01 6.000000e+01 2.000000e+00
    endloop
  endfacet
  facet normal 0.000000e+00 -1.000000e+00 0.000000e+00
    outer loop
      vertex   -1.500000e+01 5.500000e+01 8.881784e-15
      vertex   -1.000000e+01 5.500000e+01 0.000000e+00
      vertex   -1.500000e+01 5.500000e+01 2.000000e+00
    endloop
  endfacet
  facet normal 0.000000e+00 -1.000000e+00 0.000000e+00
    outer loop
      vertex   -1.500000e+01 5.500000e+01 2.000000e+00
      vertex   -1.000000e+01 5.500000e+01 0.000000e+00
      vertex   -1.000000e+01 5.500000e+01 2.000000e+00
    endloop
  endfacet
  facet normal 0.000000e+00 -1.000000e+00 0.000000e+00
    outer loop
      vertex   -4.000000e+01 4.500000e+01 0.000000e+00
      vertex   -3.500000e+01 4.500000e+01 0.000000e+00
      vertex   -4.000000e+01 4.500000e+01 2.000000e+00
    endloop
  endfacet
  facet normal 0.000000e+00 -1.000000e+00 0.000000e+00
    outer loop
      vertex   -4.000000e+01 4.500000e+01 2.000000e+00
      vertex   -3.500000e+01 4.500000e+01 0.000000e+00
      vertex   -3.500000e+01 4.500000e+01 2.000000e+00
    endloop
  endfacet
  facet normal -1.000000e+00 -0.000000e+00 0.000000e+00
    outer loop
      vertex   -4.000000e+01 5.500000e+01 8.881784e-15
      vertex   -4.000000e+01 4.500000e+01 0.000000e+00
      vertex   -4.000000e+01 5.500000e+01 2.000000e+00
    endloop
  endfacet
  facet normal -1.000000e+00 -0.000000e+00 0.000000e+00
    outer loop
      vertex   -4.000000e+01 5.500000e+01 2.000000e+00
      vertex   -4.000000e+01 4.500000e+01 0.000000e+00
      vertex   -4.000000e+01 4.500000e+01 2.000000e+00
    endloop
  endfacet
  facet normal 0.000000e+00 1.000000e+00 -0.000000e+00
    outer loop
      vertex   -3.500000e+01 5.500000e+01 0.000000e+00
      vertex   -4.000000e+01 5.500000e+01 8.881784e-15
      vertex   -3.500000e+01 5.500000e+01 2.000000e+00
    endloop
  endfacet
  facet normal 0.000000e+00 1.000000e+00 -0.000000e+00
    outer loop
      vertex   -3.500000e+01 5.500000e+01 2.000000e+00
      vertex   -4.000000e+01 5.500000e+01 8.881784e-15
      vertex   -4.000000e+01 5.500000e+01 2.000000e+00
    endloop
  endfacet
  facet normal 1.000000e+00 0.000000e+00 -0.000000e+00
    outer loop
      vertex   -2.000000e+01 4.500000e+01 -8.881784e-15
      vertex   -2.000000e+01 5.000000e+01 -8.881784e-15
      vertex   -2.000000e+01 4.500000e+01 2.000000e+00
    endloop
  endfacet
  facet normal 1.000000e+00 -0.000000e+00 0.000000e+00
    outer loop
      vertex   -2.000000e+01 4.500000e+01 2.000000e+00
      vertex   -2.000000e+01 5.000000e+01 -8.881784e-15
      vertex   -2.000000e+01 5.000000e+01 2.000000e+00
    endloop
  endfacet
  facet normal 0.000000e+00 -1.000000e+00 0.000000e+00
    outer loop
      vertex   -2.500000e+01 4.500000e+01 0.000000e+00
      vertex   -2.000000e+01 4.500000e+01 -8.881784e-15
      vertex   -2.500000e+01 4.500000e+01 2.000000e+00
    endloop
  endfacet
  facet normal 0.000000e+00 -1.000000e+00 0.000000e+00
    outer loop
      vertex   -2.500000e+01 4.500000e+01 2.000000e+00
      vertex   -2.000000e+01 4.500000e+01 -8.881784e-15
      vertex   -2.000000e+01 4.500000e+01 2.000000e+00
    endloop
  endfacet
  facet normal 1.776357e-15 -0.000000e+00 1.000000e+00
    outer loop
      vertex   -2.000000e+01 4.500000e+01 2.000000e+00
      vertex   -2.000000e+01 5.000000e+01 2.000000e+00
      vertex   -2.500000e+01 4.500000e+01 2.000000e+00
    endloop
  endfacet
  facet normal 8.881784e-16 8.881784e-16 1.000000e+00
    outer loop
      vertex   -2.500000e+01 4.500000e+01 2.000000e+00
      vertex   -2.000000e+01 5.000000e+01 2.000000e+00
      vertex   -3.500000e+01 5.500000e+01 2.000000e+00
    endloop
  endfacet
  facet normal 0.000000e+00 -0.000000e+00 1.000000e+00
    outer loop
      vertex   -3.500000e+01 4.500000e+01 2.000000e+00
      vertex   -3.500000e+01 5.500000e+01 2.000000e+00
      vertex   -4.000000e+01 4.500000e+01 2.000000e+00
    endloop
  endfacet
  facet normal 0.000000e+00 -0.000000e+00 1.000000e+00
    outer loop
      vertex   -3.500000e+01 4.500000e+01 2.000000e+00
      vertex   -2.500000e+01 4.500000e+01 2.000000e+00
      vertex   -3.500000e+01 5.500000e+01 2.000000e+00
    endloop
  endfacet
  facet normal -0.000000e+00 0.000000e+00 1.000000e+00
    outer loop
      vertex   -3.500000e+01 4.500000e+01 2.000000e+00
      vertex   -2.500000e+01 4.000000e+01 2.000000e+00
      vertex   -2.500000e+01 4.500000e+01 2.000000e+00
    endloop
  endfacet
  facet normal -0.000000e+00 0.000000e+00 1.000000e+00
    outer loop
      vertex   -3.500000e+01 4.500000e+01 2.000000e+00
      vertex   -3.500000e+01 4.000000e+01 2.000000e+00
      vertex   -2.500000e+01 4.000000e+01 2.000000e+00
    endloop
  endfacet
  facet normal -3.552714e-15 0.000000e+00 1.000000e+00
    outer loop
      vertex   -1.500000e+01 5.000000e+01 2.000000e+00
      vertex   -1.500000e+01 5.500000e+01 2.000000e+00
      vertex   -2.000000e+01 5.000000e+01 2.000000e+00
    endloop
  endfacet
  facet normal -3.552714e-15 0.000000e+00 1.000000e+00
    outer loop
      vertex   -2.000000e+01 5.000000e+01 2.000000e+00
      vertex   -1.500000e+01 5.500000e+01 2.000000e+00
      vertex   -1.500000e+01 6.000000e+01 2.000000e+00
    endloop
  endfacet
  facet normal -3.552714e-15 0.000000e+00 1.000000e+00
    outer loop
      vertex   -2.000000e+01 6.500000e+01 2.000000e+00
      vertex   -1.500000e+01 6.000000e+01 2.000000e+00
      vertex   -1.500000e+01 6.500000e+01 2.000000e+00
    endloop
  endfacet
  facet normal -3.552714e-15 0.000000e+00 1.000000e+00
    outer loop
      vertex   -2.000000e+01 6.500000e+01 2.000000e+00
      vertex   -2.000000e+01 5.000000e+01 2.000000e+00
      vertex   -1.500000e+01 6.000000e+01 2.000000e+00
    endloop
  endfacet
  facet normal 5.921189e-16 0.000000e+00 1.000000e+00
    outer loop
      vertex   -2.000000e+01 6.500000e+01 2.000000e+00
      vertex   -3.500000e+01 6.000000e+01 2.000000e+00
      vertex   -2.000000e+01 5.000000e+01 2.000000e+00
    endloop
  endfacet
  facet normal 8.881784e-16 -8.881784e-16 1.000000e+00
    outer loop
      vertex   -2.000000e+01 6.500000e+01 2.000000e+00
      vertex   -2.500000e+01 7.000000e+01 2.000000e+00
      vertex   -3.500000e+01 6.000000e+01 2.000000e+00
    endloop
  endfacet
  facet normal 1.776357e-15 -0.000000e+00 1.000000e+00
    outer loop
      vertex   -2.000000e+01 6.500000e+01 2.000000e+00
      vertex   -2.000000e+01 7.000000e+01 2.000000e+00
      vertex   -2.500000e+01 7.000000e+01 2.000000e+00
    endloop
  endfacet
  facet normal 1.776357e-15 0.000000e+00 1.000000e+00
    outer loop
      vertex   -1.500000e+01 5.500000e+01 2.000000e+00
      vertex   -1.000000e+01 5.500000e+01 2.000000e+00
      vertex   -1.500000e+01 6.000000e+01 2.000000e+00
    endloop
  endfacet
  facet normal 0.000000e+00 -1.776357e-15 1.000000e+00
    outer loop
      vertex   -1.500000e+01 6.000000e+01 2.000000e+00
      vertex   -1.000000e+01 5.500000e+01 2.000000e+00
      vertex   -1.000000e+01 6.000000e+01 2.000000e+00
    endloop
  endfacet
  facet normal 0.000000e+00 0.000000e+00 1.000000e+00
    outer loop
      vertex   -2.500000e+01 7.500000e+01 2.000000e+00
      vertex   -3.500000e+01 7.500000e+01 2.000000e+00
      vertex   -2.500000e+01 7.000000e+01 2.000000e+00
    endloop
  endfacet
  facet normal 0.000000e+00 0.000000e+00 1.000000e+00
    outer loop
      vertex   -2.500000e+01 7.000000e+01 2.000000e+00
      vertex   -3.500000e+01 7.500000e+01 2.000000e+00
      vertex   -3.500000e+01 7.000000e+01 2.000000e+00
    endloop
  endfacet
  facet normal 1.776357e-15 -0.000000e+00 1.000000e+00
    outer loop
      vertex   -3.500000e+01 6.000000e+01 2.000000e+00
      vertex   -3.500000e+01 7.000000e+01 2.000000e+00
      vertex   -4.000000e+01 6.000000e+01 2.000000e+00
    endloop
  endfacet
  facet normal 0.000000e+00 -0.000000e+00 1.000000e+00
    outer loop
      vertex   -3.500000e+01 6.000000e+01 2.000000e+00
      vertex   -2.500000e+01 7.000000e+01 2.000000e+00
      vertex   -3.500000e+01 7.000000e+01 2.000000e+00
    endloop
  endfacet
  facet normal 0.000000e+00 8.881784e-16 1.000000e+00
    outer loop
      vertex   -3.500000e+01 7.000000e+01 2.000000e+00
      vertex   -4.000000e+01 7.000000e+01 2.000000e+00
      vertex   -4.000000e+01 6.000000e+01 2.000000e+00
    endloop
  endfacet
  facet normal 5.921189e-16 0.000000e+00 1.000000e+00
    outer loop
      vertex   -3.500000e+01 6.000000e+01 2.000000e+00
      vertex   -3.500000e+01 5.500000e+01 2.000000e+00
      vertex   -2.000000e+01 5.000000e+01 2.000000e+00
    endloop
  endfacet
  facet normal 1.776357e-15 -8.881784e-16 1.000000e+00
    outer loop
      vertex   -3.500000e+01 5.500000e+01 2.000000e+00
      vertex   -4.000000e+01 5.500000e+01 2.000000e+00
      vertex   -4.000000e+01 4.500000e+01 2.000000e+00
    endloop
  endfacet
  facet normal -1.776357e-15 0.000000e+00 -1.000000e+00
    outer loop
      vertex   -2.000000e+01 4.500000e+01 -8.881784e-15
      vertex   -2.500000e+01 4.500000e+01 0.000000e+00
      vertex   -2.000000e+01 5.000000e+01 -8.881784e-15
    endloop
  endfacet
  facet normal -8.881784e-16 -8.881784e-16 -1.000000e+00
    outer loop
      vertex   -2.000000e+01 5.000000e+01 -8.881784e-15
      vertex   -2.500000e+01 4.500000e+01 0.000000e+00
      vertex   -3.500000e+01 5.500000e+01 0.000000e+00
    endloop
  endfacet
  facet normal -5.921189e-16 0.000000e+00 -1.000000e+00
    outer loop
      vertex   -2.000000e+01 6.500000e+01 -8.881784e-15
      vertex   -3.500000e+01 5.500000e+01 0.000000e+00
      vertex   -3.500000e+01 6.000000e+01 0.000000e+00
    endloop
  endfacet
  facet normal -0.000000e+00 0.000000e+00 -1.000000e+00
    outer loop
      vertex   -2.500000e+01 7.000000e+01 0.000000e+00
      vertex   -3.500000e+01 6.000000e+01 0.000000e+00
      vertex   -3.500000e+01 7.000000e+01 0.000000e+00
    endloop
  endfacet
  facet normal -0.000000e+00 0.000000e+00 -1.000000e+00
    outer loop
      vertex   -2.500000e+01 7.500000e+01 0.000000e+00
      vertex   -3.500000e+01 7.000000e+01 0.000000e+00
      vertex   -3.500000e+01 7.500000e+01 0.000000e+00
    endloop
  endfacet
  facet normal -0.000000e+00 -0.000000e+00 -1.000000e+00
    outer loop
      vertex   -2.500000e+01 7.500000e+01 0.000000e+00
      vertex   -2.500000e+01 7.000000e+01 0.000000e+00
      vertex   -3.500000e+01 7.000000e+01 0.000000e+00
    endloop
  endfacet
  facet normal 0.000000e+00 0.000000e+00 -1.000000e+00
    outer loop
      vertex   -2.500000e+01 4.000000e+01 0.000000e+00
      vertex   -3.500000e+01 4.000000e+01 0.000000e+00
      vertex   -2.500000e+01 4.500000e+01 0.000000e+00
    endloop
  endfacet
  facet normal -0.000000e+00 0.000000e+00 -1.000000e+00
    outer loop
      vertex   -2.500000e+01 4.500000e+01 0.000000e+00
      vertex   -3.500000e+01 4.000000e+01 0.000000e+00
      vertex   -3.500000e+01 4.500000e+01 0.000000e+00
    endloop
  endfacet
  facet normal -0.000000e+00 -0.000000e+00 -1.000000e+00
    outer loop
      vertex   -3.500000e+01 5.500000e+01 0.000000e+00
      vertex   -3.500000e+01 4.500000e+01 0.000000e+00
      vertex   -4.000000e+01 4.500000e+01 0.000000e+00
    endloop
  endfacet
  facet normal -1.776357e-15 8.881784e-16 -1.000000e+00
    outer loop
      vertex   -4.000000e+01 5.500000e+01 8.881784e-15
      vertex   -3.500000e+01 5.500000e+01 0.000000e+00
      vertex   -4.000000e+01 4.500000e+01 0.000000e+00
    endloop
  endfacet
  facet normal 0.000000e+00 0.000000e+00 -1.000000e+00
    outer loop
      vertex   -2.500000e+01 4.500000e+01 0.000000e+00
      vertex   -3.500000e+01 4.500000e+01 0.000000e+00
      vertex   -3.500000e+01 5.500000e+01 0.000000e+00
    endloop
  endfacet
  facet normal -5.921189e-16 0.000000e+00 -1.000000e+00
    outer loop
      vertex   -2.000000e+01 5.000000e+01 -8.881784e-15
      vertex   -3.500000e+01 5.500000e+01 0.000000e+00
      vertex   -2.000000e+01 6.500000e+01 -8.881784e-15
    endloop
  endfacet
  facet normal 3.552714e-15 0.000000e+00 -1.000000e+00
    outer loop
      vertex   -1.500000e+01 5.500000e+01 8.881784e-15
      vertex   -2.000000e+01 6.500000e+01 -8.881784e-15
      vertex   -1.500000e+01 6.000000e+01 8.881784e-15
    endloop
  endfacet
  facet normal -0.000000e+00 0.000000e+00 -1.000000e+00
    outer loop
      vertex   -1.000000e+01 6.000000e+01 8.881784e-15
      vertex   -1.500000e+01 5.500000e+01 8.881784e-15
      vertex   -1.500000e+01 6.000000e+01 8.881784e-15
    endloop
  endfacet
  facet normal -1.776357e-15 1.776357e-15 -1.000000e+00
    outer loop
      vertex   -1.000000e+01 6.000000e+01 8.881784e-15
      vertex   -1.000000e+01 5.500000e+01 0.000000e+00
      vertex   -1.500000e+01 5.500000e+01 8.881784e-15
    endloop
  endfacet
  facet normal -1.776357e-15 0.000000e+00 -1.000000e+00
    outer loop
      vertex   -3.500000e+01 6.000000e+01 0.000000e+00
      vertex   -4.000000e+01 6.000000e+01 8.881784e-15
      vertex   -3.500000e+01 7.000000e+01 0.000000e+00
    endloop
  endfacet
  facet normal 0.000000e+00 -8.881784e-16 -1.000000e+00
    outer loop
      vertex   -3.500000e+01 7.000000e+01 0.000000e+00
      vertex   -4.000000e+01 6.000000e+01 8.881784e-15
      vertex   -4.000000e+01 7.000000e+01 0.000000e+00
    endloop
  endfacet
  facet normal -1.776357e-15 -0.000000e+00 -1.000000e+00
    outer loop
      vertex   -2.000000e+01 7.000000e+01 -8.881784e-15
      vertex   -2.000000e+01 6.500000e+01 -8.881784e-15
      vertex   -2.500000e+01 7.000000e+01 0.000000e+00
    endloop
  endfacet
  facet normal -8.881784e-16 8.881784e-16 -1.000000e+00
    outer loop
      vertex   -2.500000e+01 7.000000e+01 0.000000e+00
      vertex   -2.000000e+01 6.500000e+01 -8.881784e-15
      vertex   -3.500000e+01 6.000000e+01 0.000000e+00
    endloop
  endfacet
  facet normal 3.552714e-15 0.000000e+00 -1.000000e+00
    outer loop
      vertex   -2.000000e+01 6.500000e+01 -8.881784e-15
      vertex   -1.500000e+01 6.500000e+01 8.881784e-15
      vertex   -1.500000e+01 6.000000e+01 8.881784e-15
    endloop
  endfacet
  facet normal 3.552714e-15 0.000000e+00 -1.000000e+00
    outer loop
      vertex   -1.500000e+01 5.000000e+01 8.881784e-15
      vertex   -2.000000e+01 5.000000e+01 -8.881784e-15
      vertex   -1.500000e+01 5.500000e+01 8.881784e-15
    endloop
  endfacet
  facet normal 3.552714e-15 0.000000e+00 -1.000000e+00
    outer loop
      vertex   -1.500000e+01 5.500000e+01 8.881784e-15
      vertex   -2.000000e+01 5.000000e+01 -8.881784e-15
      vertex   -2.000000e+01 6.500000e+01 -8.881784e-15
    endloop
  endfacet
  facet normal 1.000000e+00 0.000000e+00 -0.000000e+00
    outer loop
      vertex   -2.500000e+01 4.000000e+01 0.000000e+00
      vertex   -2.500000e+01 4.500000e+01 0.000000e+00
      vertex   -2.500000e+01 4.000000e+01 2.000000e+00
    endloop
  endfacet
  facet normal 1.000000e+00 -0.000000e+00 0.000000e+00
    outer loop
      vertex   -2.500000e+01 4.000000e+01 2.000000e+00
      vertex   -2.500000e+01 4.500000e+01 0.000000e+00
      vertex   -2.500000e+01 4.500000e+01 2.000000e+00
    endloop
  endfacet
  facet normal 0.000000e+00 -1.000000e+00 0.000000e+00
    outer loop
      vertex   -3.500000e+01 4.000000e+01 0.000000e+00
      vertex   -2.500000e+01 4.000000e+01 0.000000e+00
      vertex   -3.500000e+01 4.000000e+01 2.000000e+00
    endloop
  endfacet
  facet normal 0.000000e+00 -1.000000e+00 0.000000e+00
    outer loop
      vertex   -3.500000e+01 4.000000e+01 2.000000e+00
      vertex   -2.500000e+01 4.000000e+01 0.000000e+00
      vertex   -2.500000e+01 4.000000e+01 2.000000e+00
    endloop
  endfacet
  facet normal -1.000000e+00 0.000000e+00 0.000000e+00
    outer loop
      vertex   -3.500000e+01 4.500000e+01 0.000000e+00
      vertex   -3.500000e+01 4.000000e+01 0.000000e+00
      vertex   -3.500000e+01 4.500000e+01 2.000000e+00
    endloop
  endfacet
  facet normal -1.000000e+00 -0.000000e+00 0.000000e+00
    outer loop
      vertex   -3.500000e+01 4.500000e+01 2.000000e+00
      vertex   -3.500000e+01 4.000000e+01 0.000000e+00
      vertex   -3.500000e+01 4.000000e+01 2.000000e+00
    endloop
  endfacet
  facet normal -1.000000e+00 0.000000e+00 0.000000e+00
    outer loop
      vertex   -3.500000e+01 6.000000e+01 0.000000e+00
      vertex   -3.500000e+01 5.500000e+01 0.000000e+00
      vertex   -3.500000e+01 6.000000e+01 2.000000e+00
    endloop
  endfacet
  facet normal -1.000000e+00 -0.000000e+00 0.000000e+00
    outer loop
      vertex   -3.500000e+01 6.000000e+01 2.000000e+00
      vertex   -3.500000e+01 5.500000e+01 0.000000e+00
      vertex   -3.500000e+01 5.500000e+01 2.000000e+00
    endloop
  endfacet
  facet normal 0.000000e+00 -1.000000e+00 0.000000e+00
    outer loop
      vertex   -4.000000e+01 6.000000e+01 8.881784e-15
      vertex   -3.500000e+01 6.000000e+01 0.000000e+00
      vertex   -4.000000e+01 6.000000e+01 2.000000e+00
    endloop
  endfacet
  facet normal 0.000000e+00 -1.000000e+00 0.000000e+00
    outer loop
      vertex   -4.000000e+01 6.000000e+01 2.000000e+00
      vertex   -3.500000e+01 6.000000e+01 0.000000e+00
      vertex   -3.500000e+01 6.000000e+01 2.000000e+00
    endloop
  endfacet
  facet normal -1.000000e+00 0.000000e+00 0.000000e+00
    outer loop
      vertex   -4.000000e+01 7.000000e+01 0.000000e+00
      vertex   -4.000000e+01 6.000000e+01 8.881784e-15
      vertex   -4.000000e+01 7.000000e+01 2.000000e+00
    endloop
  endfacet
  facet normal -1.000000e+00 -0.000000e+00 0.000000e+00
    outer loop
      vertex   -4.000000e+01 7.000000e+01 2.000000e+00
      vertex   -4.000000e+01 6.000000e+01 8.881784e-15
      vertex   -4.000000e+01 6.000000e+01 2.000000e+00
    endloop
  endfacet
  facet normal 0.000000e+00 1.000000e+00 -0.000000e+00
    outer loop
      vertex   -3.500000e+01 7.000000e+01 0.000000e+00
      vertex   -4.000000e+01 7.000000e+01 0.000000e+00
      vertex   -3.500000e+01 7.000000e+01 2.000000e+00
    endloop
  endfacet
  facet normal 0.000000e+00 1.000000e+00 -0.000000e+00
    outer loop
      vertex   -3.500000e+01 7.000000e+01 2.000000e+00
      vertex   -4.000000e+01 7.000000e+01 0.000000e+00
      vertex   -4.000000e+01 7.000000e+01 2.000000e+00
    endloop
  endfacet
  facet normal 0.000000e+00 1.000000e+00 -0.000000e+00
    outer loop
      vertex   -1.500000e+01 6.500000e+01 8.881784e-15
      vertex   -2.000000e+01 6.500000e+01 -8.881784e-15
      vertex   -1.500000e+01 6.500000e+01 2.000000e+00
    endloop
  endfacet
  facet normal 0.000000e+00 1.000000e+00 -0.000000e+00
    outer loop
      vertex   -1.500000e+01 6.500000e+01 2.000000e+00
      vertex   -2.000000e+01 6.500000e+01 -8.881784e-15
      vertex   -2.000000e+01 6.500000e+01 2.000000e+00
    endloop
  endfacet
  facet normal 1.000000e+00 0.000000e+00 -0.000000e+00
    outer loop
      vertex   -1.500000e+01 6.000000e+01 8.881784e-15
      vertex   -1.500000e+01 6.500000e+01 8.881784e-15
      vertex   -1.500000e+01 6.000000e+01 2.000000e+00
    endloop
  endfacet
  facet normal 1.000000e+00 -0.000000e+00 0.000000e+00
    outer loop
      vertex   -1.500000e+01 6.000000e+01 2.000000e+00
      vertex   -1.500000e+01 6.500000e+01 8.881784e-15
      vertex   -1.500000e+01 6.500000e+01 2.000000e+00
    endloop
  endfacet
  facet normal -1.000000e+00 0.000000e+00 0.000000e+00
    outer loop
      vertex   -3.500000e+01 7.500000e+01 0.000000e+00
      vertex   -3.500000e+01 7.000000e+01 0.000000e+00
      vertex   -3.500000e+01 7.500000e+01 2.000000e+00
    endloop
  endfacet
  facet normal -1.000000e+00 -0.000000e+00 0.000000e+00
    outer loop
      vertex   -3.500000e+01 7.500000e+01 2.000000e+00
      vertex   -3.500000e+01 7.000000e+01 0.000000e+00
      vertex   -3.500000e+01 7.000000e+01 2.000000e+00
    endloop
  endfacet
  facet normal 0.000000e+00 1.000000e+00 -0.000000e+00
    outer loop
      vertex   -2.500000e+01 7.500000e+01 0.000000e+00
      vertex   -3.500000e+01 7.500000e+01 0.000000e+00
      vertex   -2.500000e+01 7.500000e+01 2.000000e+00
    endloop
  endfacet
  facet normal 0.000000e+00 1.000000e+00 -0.000000e+00
    outer loop
      vertex   -2.500000e+01 7.500000e+01 2.000000e+00
      vertex   -3.500000e+01 7.500000e+01 0.000000e+00
      vertex   -3.500000e+01 7.500000e+01 2.000000e+00
    endloop
  endfacet
  facet normal 1.000000e+00 0.000000e+00 -0.000000e+00
    outer loop
      vertex   -2.500000e+01 7.000000e+01 0.000000e+00
      vertex   -2.500000e+01 7.500000e+01 0.000000e+00
      vertex   -2.500000e+01 7.000000e+01 2.000000e+00
    endloop
  endfacet
  facet normal 1.000000e+00 -0.000000e+00 0.000000e+00
    outer loop
      vertex   -2.500000e+01 7.000000e+01 2.000000e+00
      vertex   -2.500000e+01 7.500000e+01 0.000000e+00
      vertex   -2.500000e+01 7.500000e+01 2.000000e+00
    endloop
  endfacet
  facet normal 0.000000e+00 1.000000e+00 -0.000000e+00
    outer loop
      vertex   -2.000000e+01 7.000000e+01 -8.881784e-15
      vertex   -2.500000e+01 7.000000e+01 0.000000e+00
      vertex   -2.000000e+01 7.000000e+01 2.000000e+00
    endloop
  endfacet
  facet normal 0.000000e+00 1.000000e+00 -0.000000e+00
    outer loop
      vertex   -2.000000e+01 7.000000e+01 2.000000e+00
      vertex   -2.500000e+01 7.000000e+01 0.000000e+00
      vertex   -2.500000e+01 7.000000e+01 2.000000e+00
    endloop
  endfacet
  facet normal 1.000000e+00 0.000000e+00 -0.000000e+00
    outer loop
      vertex   -2.000000e+01 6.500000e+01 -8.881784e-15
      vertex   -2.000000e+01 7.000000e+01 -8.881784e-15
      vertex   -2.000000e+01 6.500000e+01 2.000000e+00
    endloop
  endfacet
  facet normal 1.000000e+00 -0.000000e+00 0.000000e+00
    outer loop
      vertex   -2.000000e+01 6.500000e+01 2.000000e+00
      vertex   -2.000000e+01 7.000000e+01 -8.881784e-15
      vertex   -2.000000e+01 7.000000e+01 2.000000e+00
    endloop
  endfacet
endsolid
