solid OpenSCAD_Model
  facet normal 0 0 1
    outer loop
      vertex 7 -20 17
      vertex 10 -20 17
      vertex 10 -17 17
    endloop
  endfacet
  facet normal 0 -0 1
    outer loop
      vertex 7 -17 17
      vertex 7 -20 17
      vertex 10 -17 17
    endloop
  endfacet
  facet normal 1 0 0
    outer loop
      vertex 10 17 5
      vertex 10 20 0
      vertex 10 20 17
    endloop
  endfacet
  facet normal 1 0 0
    outer loop
      vertex 10 17 5
      vertex 10 -17 5
      vertex 10 -20 0
    endloop
  endfacet
  facet normal 1 0 0
    outer loop
      vertex 10 -20 0
      vertex 10 20 0
      vertex 10 17 5
    endloop
  endfacet
  facet normal 1 0 0
    outer loop
      vertex 10 -17 17
      vertex 10 -20 0
      vertex 10 -17 5
    endloop
  endfacet
  facet normal 1 0 -0
    outer loop
      vertex 10 -20 17
      vertex 10 -20 0
      vertex 10 -17 17
    endloop
  endfacet
  facet normal 1 0 -0
    outer loop
      vertex 10 17 17
      vertex 10 17 5
      vertex 10 20 17
    endloop
  endfacet
  facet normal -0 -1 0
    outer loop
      vertex 7 -20 5
      vertex 10 -20 0
      vertex 10 -20 17
    endloop
  endfacet
  facet normal 0 -1 0
    outer loop
      vertex 7 -20 5
      vertex -7 -20 5
      vertex -10 -20 0
    endloop
  endfacet
  facet normal -0 -1 0
    outer loop
      vertex -10 -20 0
      vertex 10 -20 0
      vertex 7 -20 5
    endloop
  endfacet
  facet normal 0 -1 0
    outer loop
      vertex -7 -20 17
      vertex -10 -20 0
      vertex -7 -20 5
    endloop
  endfacet
  facet normal 0 -1 0
    outer loop
      vertex -10 -20 17
      vertex -10 -20 0
      vertex -7 -20 17
    endloop
  endfacet
  facet normal 0 -1 0
    outer loop
      vertex 7 -20 17
      vertex 7 -20 5
      vertex 10 -20 17
    endloop
  endfacet
  facet normal -1 0 0
    outer loop
      vertex 7 -20 17
      vertex 7 -17 17
      vertex 7 -20 5
    endloop
  endfacet
  facet normal -1 -0 0
    outer loop
      vertex 7 -20 5
      vertex 7 -17 17
      vertex 7 -17 5
    endloop
  endfacet
  facet normal 0 1 -0
    outer loop
      vertex 7 -17 17
      vertex 10 -17 17
      vertex 7 -17 5
    endloop
  endfacet
  facet normal 0 1 0
    outer loop
      vertex 7 -17 5
      vertex 10 -17 17
      vertex 10 -17 5
    endloop
  endfacet
  facet normal 0 0 -1
    outer loop
      vertex -10 20 0
      vertex 10 20 0
      vertex -10 -20 0
    endloop
  endfacet
  facet normal -0 0 -1
    outer loop
      vertex -10 -20 0
      vertex 10 20 0
      vertex 10 -20 0
    endloop
  endfacet
  facet normal -0 0 1
    outer loop
      vertex 7 -20 5
      vertex -7 -17 5
      vertex -7 -20 5
    endloop
  endfacet
  facet normal 0 0 1
    outer loop
      vertex 7 -17 5
      vertex -7 -17 5
      vertex 7 -20 5
    endloop
  endfacet
  facet normal 0 0 1
    outer loop
      vertex -10 -17 5
      vertex -7 -17 5
      vertex 10 17 5
    endloop
  endfacet
  facet normal 0 0 1
    outer loop
      vertex 10 17 5
      vertex -7 -17 5
      vertex 7 -17 5
    endloop
  endfacet
  facet normal 0 0 1
    outer loop
      vertex 10 17 5
      vertex 7 -17 5
      vertex 10 -17 5
    endloop
  endfacet
  facet normal 0 -0 1
    outer loop
      vertex 7 17 5
      vertex -10 -17 5
      vertex 10 17 5
    endloop
  endfacet
  facet normal 0 0 1
    outer loop
      vertex 7 20 5
      vertex -10 -17 5
      vertex 7 17 5
    endloop
  endfacet
  facet normal 0 -0 1
    outer loop
      vertex -7 17 5
      vertex -10 -17 5
      vertex 7 20 5
    endloop
  endfacet
  facet normal 0 -0 1
    outer loop
      vertex -7 20 5
      vertex -7 17 5
      vertex 7 20 5
    endloop
  endfacet
  facet normal 0 0 1
    outer loop
      vertex -7 17 5
      vertex -10 17 5
      vertex -10 -17 5
    endloop
  endfacet
  facet normal -0 -1 0
    outer loop
      vertex 7 17 5
      vertex 10 17 5
      vertex 10 17 17
    endloop
  endfacet
  facet normal 0 -1 0
    outer loop
      vertex 7 17 17
      vertex 7 17 5
      vertex 10 17 17
    endloop
  endfacet
  facet normal 0 0 1
    outer loop
      vertex 7 17 17
      vertex 10 17 17
      vertex 10 20 17
    endloop
  endfacet
  facet normal 0 -0 1
    outer loop
      vertex 7 20 17
      vertex 7 17 17
      vertex 10 20 17
    endloop
  endfacet
  facet normal 0 1 -0
    outer loop
      vertex -10 20 17
      vertex -7 20 17
      vertex -10 20 0
    endloop
  endfacet
  facet normal 0 1 0
    outer loop
      vertex -10 20 0
      vertex -7 20 17
      vertex -7 20 5
    endloop
  endfacet
  facet normal 0 1 0
    outer loop
      vertex -10 20 0
      vertex -7 20 5
      vertex 7 20 5
    endloop
  endfacet
  facet normal 0 1 0
    outer loop
      vertex 7 20 5
      vertex 7 20 17
      vertex 10 20 17
    endloop
  endfacet
  facet normal 0 1 0
    outer loop
      vertex 7 20 5
      vertex 10 20 17
      vertex 10 20 0
    endloop
  endfacet
  facet normal 0 1 -0
    outer loop
      vertex 7 20 5
      vertex 10 20 0
      vertex -10 20 0
    endloop
  endfacet
  facet normal -1 0 0
    outer loop
      vertex -10 -20 17
      vertex -10 -17 17
      vertex -10 -20 0
    endloop
  endfacet
  facet normal -1 0 0
    outer loop
      vertex -10 -20 0
      vertex -10 -17 17
      vertex -10 -17 5
    endloop
  endfacet
  facet normal -1 0 0
    outer loop
      vertex -10 -20 0
      vertex -10 -17 5
      vertex -10 17 5
    endloop
  endfacet
  facet normal -1 0 -0
    outer loop
      vertex -10 17 5
      vertex -10 17 17
      vertex -10 20 17
    endloop
  endfacet
  facet normal -1 -0 0
    outer loop
      vertex -10 17 5
      vertex -10 20 17
      vertex -10 20 0
    endloop
  endfacet
  facet normal -1 0 0
    outer loop
      vertex -10 17 5
      vertex -10 20 0
      vertex -10 -20 0
    endloop
  endfacet
  facet normal 0 0 1
    outer loop
      vertex -10 -20 17
      vertex -7 -20 17
      vertex -7 -17 17
    endloop
  endfacet
  facet normal 0 -0 1
    outer loop
      vertex -10 -17 17
      vertex -10 -20 17
      vertex -7 -17 17
    endloop
  endfacet
  facet normal 1 0 0
    outer loop
      vertex -7 -20 5
      vertex -7 -17 5
      vertex -7 -17 17
    endloop
  endfacet
  facet normal 1 0 -0
    outer loop
      vertex -7 -20 17
      vertex -7 -20 5
      vertex -7 -17 17
    endloop
  endfacet
  facet normal 0 1 -0
    outer loop
      vertex -10 -17 17
      vertex -7 -17 17
      vertex -10 -17 5
    endloop
  endfacet
  facet normal 0 1 0
    outer loop
      vertex -10 -17 5
      vertex -7 -17 17
      vertex -7 -17 5
    endloop
  endfacet
  facet normal -0 -1 0
    outer loop
      vertex -10 17 5
      vertex -7 17 5
      vertex -7 17 17
    endloop
  endfacet
  facet normal 0 -1 0
    outer loop
      vertex -10 17 17
      vertex -10 17 5
      vertex -7 17 17
    endloop
  endfacet
  facet normal 1 0 0
    outer loop
      vertex -7 17 5
      vertex -7 20 5
      vertex -7 20 17
    endloop
  endfacet
  facet normal 1 0 -0
    outer loop
      vertex -7 17 17
      vertex -7 17 5
      vertex -7 20 17
    endloop
  endfacet
  facet normal -1 0 0
    outer loop
      vertex 7 17 17
      vertex 7 20 17
      vertex 7 17 5
    endloop
  endfacet
  facet normal -1 -0 0
    outer loop
      vertex 7 17 5
      vertex 7 20 17
      vertex 7 20 5
    endloop
  endfacet
  facet normal 0 0 1
    outer loop
      vertex -10 17 17
      vertex -7 17 17
      vertex -7 20 17
    endloop
  endfacet
  facet normal 0 -0 1
    outer loop
      vertex -10 20 17
      vertex -10 17 17
      vertex -7 20 17
    endloop
  endfacet
endsolid OpenSCAD_Model
