solid OpenSCAD_Model
  facet normal 2.44921e-16 1 0
    outer loop
      vertex 34.5 -4 0
      vertex -38.5 -4 0
      vertex 34.5 -4 79.079
    endloop
  endfacet
  facet normal 2.44921e-16 1 0
    outer loop
      vertex 34.5 -4 79.079
      vertex -38.5 -4 0
      vertex -38.5 -4 79.079
    endloop
  endfacet
  facet normal 0 0 -1
    outer loop
      vertex 34.5 -4 0
      vertex 34.5 -58 0
      vertex -38.5 -4 0
    endloop
  endfacet
  facet normal 0 0 -1
    outer loop
      vertex -38.5 -4 0
      vertex 34.5 -58 0
      vertex -38.5 -58 0
    endloop
  endfacet
  facet normal 1 -2.44921e-16 0
    outer loop
      vertex 34.5 -58 0
      vertex 34.5 -4 0
      vertex 34.5 -4 79.079
    endloop
  endfacet
  facet normal 1 -2.44921e-16 0
    outer loop
      vertex 34.5 -58 79.079
      vertex 34.5 -58 0
      vertex 34.5 -4 79.079
    endloop
  endfacet
  facet normal -1.22461e-16 2.99932e-32 1
    outer loop
      vertex -37.509 -57.004 79.079
      vertex -38.5 -58 79.079
      vertex 34.5 -58 79.079
    endloop
  endfacet
  facet normal -1.22461e-16 2.99932e-32 1
    outer loop
      vertex 34.5 -4 79.079
      vertex 33.562 -57.004 79.079
      vertex 34.5 -58 79.079
    endloop
  endfacet
  facet normal -1.22461e-16 2.99932e-32 1
    outer loop
      vertex -38.5 -4 79.079
      vertex -38.5 -58 79.079
      vertex -37.509 -57.004 79.079
    endloop
  endfacet
  facet normal -1.22461e-16 2.99932e-32 1
    outer loop
      vertex -37.509 -4.95203 79.079
      vertex 33.562 -4.95203 79.079
      vertex -38.5 -4 79.079
    endloop
  endfacet
  facet normal -1.22461e-16 2.99932e-32 1
    outer loop
      vertex -38.5 -4 79.079
      vertex -37.509 -57.004 79.079
      vertex -37.509 -4.95203 79.079
    endloop
  endfacet
  facet normal -1.22461e-16 2.99932e-32 1
    outer loop
      vertex 34.5 -4 79.079
      vertex 33.562 -4.95203 79.079
      vertex 33.562 -57.004 79.079
    endloop
  endfacet
  facet normal -1.22461e-16 2.99932e-32 1
    outer loop
      vertex 34.5 -4 79.079
      vertex -38.5 -4 79.079
      vertex 33.562 -4.95203 79.079
    endloop
  endfacet
  facet normal -1.22461e-16 2.99932e-32 1
    outer loop
      vertex 33.562 -57.004 79.079
      vertex -37.509 -57.004 79.079
      vertex 34.5 -58 79.079
    endloop
  endfacet
  facet normal -1 2.44921e-16 0
    outer loop
      vertex -38.5 -4 0
      vertex -38.5 -58 0
      vertex -38.5 -4 79.079
    endloop
  endfacet
  facet normal -1 2.44921e-16 0
    outer loop
      vertex -38.5 -4 79.079
      vertex -38.5 -58 0
      vertex -38.5 -58 79.079
    endloop
  endfacet
  facet normal -2.44921e-16 -1 0
    outer loop
      vertex -38.5 -58 0
      vertex 34.5 -58 0
      vertex 34.5 -58 79.079
    endloop
  endfacet
  facet normal -2.44921e-16 -1 0
    outer loop
      vertex -38.5 -58 79.079
      vertex -38.5 -58 0
      vertex 34.5 -58 79.079
    endloop
  endfacet
  facet normal 1 -2.44921e-16 1.22461e-16
    outer loop
      vertex 33.562 -57.004 79.079
      vertex 33.562 -4.95203 79.079
      vertex 33.562 -4.95203 87
    endloop
  endfacet
  facet normal 1 -2.44921e-16 1.22461e-16
    outer loop
      vertex 33.562 -57.004 87
      vertex 33.562 -57.004 79.079
      vertex 33.562 -4.95203 87
    endloop
  endfacet
  facet normal -2.44921e-16 -1 0
    outer loop
      vertex -37.509 -57.004 79.079
      vertex 33.562 -57.004 79.079
      vertex 33.562 -57.004 87
    endloop
  endfacet
  facet normal -2.44921e-16 -1 0
    outer loop
      vertex -37.509 -57.004 87
      vertex -37.509 -57.004 79.079
      vertex 33.562 -57.004 87
    endloop
  endfacet
  facet normal 2.44921e-16 1 0
    outer loop
      vertex 33.562 -4.95203 79.079
      vertex -37.509 -4.95203 79.079
      vertex 33.562 -4.95203 87
    endloop
  endfacet
  facet normal 2.44921e-16 1 0
    outer loop
      vertex 33.562 -4.95203 87
      vertex -37.509 -4.95203 79.079
      vertex -37.509 -4.95203 87
    endloop
  endfacet
  facet normal -1 2.44921e-16 -1.22461e-16
    outer loop
      vertex -37.509 -4.95203 79.079
      vertex -37.509 -57.004 79.079
      vertex -37.509 -4.95203 87
    endloop
  endfacet
  facet normal -1 2.44921e-16 -1.22461e-16
    outer loop
      vertex -37.509 -4.95203 87
      vertex -37.509 -57.004 79.079
      vertex -37.509 -57.004 87
    endloop
  endfacet
  facet normal 0 0 1
    outer loop
      vertex 32.5 -6 87
      vertex 33.562 -4.95203 87
      vertex -37.509 -4.95203 87
    endloop
  endfacet
  facet normal 0 0 1
    outer loop
      vertex 33.562 -57.004 87
      vertex 33.562 -4.95203 87
      vertex 32.5 -6 87
    endloop
  endfacet
  facet normal 0 0 1
    outer loop
      vertex 32.5 -56 87
      vertex -36.5 -56 87
      vertex 33.562 -57.004 87
    endloop
  endfacet
  facet normal 0 0 1
    outer loop
      vertex 33.562 -57.004 87
      vertex 32.5 -6 87
      vertex 32.5 -56 87
    endloop
  endfacet
  facet normal 0 0 1
    outer loop
      vertex -37.509 -57.004 87
      vertex -36.5 -56 87
      vertex -37.509 -4.95203 87
    endloop
  endfacet
  facet normal 0 0 1
    outer loop
      vertex -37.509 -57.004 87
      vertex 33.562 -57.004 87
      vertex -36.5 -56 87
    endloop
  endfacet
  facet normal 0 0 1
    outer loop
      vertex -36.5 -56 87
      vertex -36.5 -6 87
      vertex -37.509 -4.95203 87
    endloop
  endfacet
  facet normal 0 0 1
    outer loop
      vertex -36.5 -6 87
      vertex 32.5 -6 87
      vertex -37.509 -4.95203 87
    endloop
  endfacet
  facet normal -2.44921e-16 -1 0
    outer loop
      vertex 32.5 -6 87
      vertex -36.5 -6 87
      vertex -36.5 -6 2
    endloop
  endfacet
  facet normal -2.44921e-16 -1 0
    outer loop
      vertex 32.5 -6 2
      vertex 32.5 -6 87
      vertex -36.5 -6 2
    endloop
  endfacet
  facet normal -1 2.44921e-16 0
    outer loop
      vertex 32.5 -56 87
      vertex 32.5 -6 87
      vertex 32.5 -56 2
    endloop
  endfacet
  facet normal -1 2.44921e-16 0
    outer loop
      vertex 32.5 -56 2
      vertex 32.5 -6 87
      vertex 32.5 -6 2
    endloop
  endfacet
  facet normal 1 -2.44921e-16 0
    outer loop
      vertex -36.5 -6 87
      vertex -36.5 -56 87
      vertex -36.5 -56 2
    endloop
  endfacet
  facet normal 1 -2.44921e-16 0
    outer loop
      vertex -36.5 -6 2
      vertex -36.5 -6 87
      vertex -36.5 -56 2
    endloop
  endfacet
  facet normal 2.44921e-16 1 0
    outer loop
      vertex -36.5 -56 87
      vertex 32.5 -56 87
      vertex -36.5 -56 2
    endloop
  endfacet
  facet normal 2.44921e-16 1 0
    outer loop
      vertex -36.5 -56 2
      vertex 32.5 -56 87
      vertex 32.5 -56 2
    endloop
  endfacet
  facet normal 0 0 1
    outer loop
      vertex -36.5 -6 2
      vertex -36.5 -56 2
      vertex 32.5 -56 2
    endloop
  endfacet
  facet normal 0 0 1
    outer loop
      vertex 32.5 -6 2
      vertex -36.5 -6 2
      vertex 32.5 -56 2
    endloop
  endfacet
  facet normal 1 -2.44921e-16 0
    outer loop
      vertex -5.825 -48.6819 1
      vertex -5.825 -47.92 1
      vertex -5.825 -47.92 1.5
    endloop
  endfacet
  facet normal 1 -2.44921e-16 0
    outer loop
      vertex -5.825 -48.6819 1.5
      vertex -5.825 -48.6819 1
      vertex -5.825 -47.92 1.5
    endloop
  endfacet
  facet normal 2.44921e-16 1 0
    outer loop
      vertex -5.825 -47.92 1
      vertex -9 -47.92 1
      vertex -5.825 -47.92 1.5
    endloop
  endfacet
  facet normal 2.44921e-16 1 0
    outer loop
      vertex -5.825 -47.92 1.5
      vertex -9 -47.92 1
      vertex -9 -47.92 1.5
    endloop
  endfacet
  facet normal 0 0 -1
    outer loop
      vertex -5.825 -47.92 1
      vertex -5.825 -48.6819 1
      vertex -9 -47.92 1
    endloop
  endfacet
  facet normal 0 0 -1
    outer loop
      vertex -9 -47.92 1
      vertex -5.825 -48.6819 1
      vertex -7.17437 -48.6819 1
    endloop
  endfacet
  facet normal 0 0 -1
    outer loop
      vertex -7.65062 -48.6819 1
      vertex -7.17437 -48.6819 1
      vertex -7.17437 -53 1
    endloop
  endfacet
  facet normal 0 0 -1
    outer loop
      vertex -9 -47.92 1
      vertex -7.17437 -48.6819 1
      vertex -7.65062 -48.6819 1
    endloop
  endfacet
  facet normal 0 0 -1
    outer loop
      vertex -9 -48.6819 1
      vertex -9 -47.92 1
      vertex -7.65062 -48.6819 1
    endloop
  endfacet
  facet normal 0 0 -1
    outer loop
      vertex -7.65062 -48.6819 1
      vertex -7.17437 -53 1
      vertex -7.65062 -53 1
    endloop
  endfacet
  facet normal -2.44921e-16 -1 0
    outer loop
      vertex -7.17437 -48.6819 1
      vertex -5.825 -48.6819 1
      vertex -5.825 -48.6819 1.5
    endloop
  endfacet
  facet normal -2.44921e-16 -1 0
    outer loop
      vertex -7.17437 -48.6819 1.5
      vertex -7.17437 -48.6819 1
      vertex -5.825 -48.6819 1.5
    endloop
  endfacet
  facet normal 0 0 1
    outer loop
      vertex -5.825 -48.6819 1.5
      vertex -5.825 -47.92 1.5
      vertex -9 -47.92 1.5
    endloop
  endfacet
  facet normal 0 0 1
    outer loop
      vertex -7.17437 -48.6819 1.5
      vertex -5.825 -48.6819 1.5
      vertex -9 -47.92 1.5
    endloop
  endfacet
  facet normal 0 0 1
    outer loop
      vertex -7.65062 -48.6819 1.5
      vertex -7.17437 -48.6819 1.5
      vertex -9 -47.92 1.5
    endloop
  endfacet
  facet normal 0 0 1
    outer loop
      vertex -9 -48.6819 1.5
      vertex -7.65062 -48.6819 1.5
      vertex -9 -47.92 1.5
    endloop
  endfacet
  facet normal 0 0 1
    outer loop
      vertex -7.65062 -53 1.5
      vertex -7.17437 -48.6819 1.5
      vertex -7.65062 -48.6819 1.5
    endloop
  endfacet
  facet normal 0 0 1
    outer loop
      vertex -7.17437 -53 1.5
      vertex -7.17437 -48.6819 1.5
      vertex -7.65062 -53 1.5
    endloop
  endfacet
  facet normal -1 2.44921e-16 0
    outer loop
      vertex -9 -47.92 1
      vertex -9 -48.6819 1
      vertex -9 -47.92 1.5
    endloop
  endfacet
  facet normal -1 2.44921e-16 0
    outer loop
      vertex -9 -47.92 1.5
      vertex -9 -48.6819 1
      vertex -9 -48.6819 1.5
    endloop
  endfacet
  facet normal -2.44921e-16 -1 0
    outer loop
      vertex -9 -48.6819 1
      vertex -7.65062 -48.6819 1
      vertex -7.65062 -48.6819 1.5
    endloop
  endfacet
  facet normal -2.44921e-16 -1 0
    outer loop
      vertex -9 -48.6819 1.5
      vertex -9 -48.6819 1
      vertex -7.65062 -48.6819 1.5
    endloop
  endfacet
  facet normal -1 2.44921e-16 0
    outer loop
      vertex -7.65062 -48.6819 1
      vertex -7.65062 -53 1
      vertex -7.65062 -48.6819 1.5
    endloop
  endfacet
  facet normal -1 2.44921e-16 0
    outer loop
      vertex -7.65062 -48.6819 1.5
      vertex -7.65062 -53 1
      vertex -7.65062 -53 1.5
    endloop
  endfacet
  facet normal -2.44921e-16 -1 0
    outer loop
      vertex -7.65062 -53 1
      vertex -7.17437 -53 1
      vertex -7.17437 -53 1.5
    endloop
  endfacet
  facet normal -2.44921e-16 -1 0
    outer loop
      vertex -7.65062 -53 1.5
      vertex -7.65062 -53 1
      vertex -7.17437 -53 1.5
    endloop
  endfacet
  facet normal 1 -2.44921e-16 0
    outer loop
      vertex -7.17437 -53 1
      vertex -7.17437 -48.6819 1
      vertex -7.17437 -48.6819 1.5
    endloop
  endfacet
  facet normal 1 -2.44921e-16 0
    outer loop
      vertex -7.17437 -53 1.5
      vertex -7.17437 -53 1
      vertex -7.17437 -48.6819 1.5
    endloop
  endfacet
  facet normal 1 -2.44921e-16 0
    outer loop
      vertex -2.3875 -53 1
      vertex -2.3875 -47.92 1
      vertex -2.3875 -47.92 1.5
    endloop
  endfacet
  facet normal 1 -2.44921e-16 0
    outer loop
      vertex -2.3875 -53 1.5
      vertex -2.3875 -53 1
      vertex -2.3875 -47.92 1.5
    endloop
  endfacet
  facet normal 2.44921e-16 1 0
    outer loop
      vertex -2.3875 -47.92 1
      vertex -2.86375 -47.92 1
      vertex -2.3875 -47.92 1.5
    endloop
  endfacet
  facet normal 2.44921e-16 1 0
    outer loop
      vertex -2.3875 -47.92 1.5
      vertex -2.86375 -47.92 1
      vertex -2.86375 -47.92 1.5
    endloop
  endfacet
  facet normal 0 0 -1
    outer loop
      vertex -2.3875 -47.92 1
      vertex -2.3875 -53 1
      vertex -2.86375 -47.92 1
    endloop
  endfacet
  facet normal 0 0 -1
    outer loop
      vertex -2.86375 -51.9838 1
      vertex -2.3875 -53 1
      vertex -2.95187 -53 1
    endloop
  endfacet
  facet normal 0 0 -1
    outer loop
      vertex -5.08625 -48.9356 1
      vertex -5.08625 -53 1
      vertex -5.5625 -53 1
    endloop
  endfacet
  facet normal 0 0 -1
    outer loop
      vertex -5.08625 -48.9356 1
      vertex -5.5625 -53 1
      vertex -5.5625 -47.92 1
    endloop
  endfacet
  facet normal 0 0 -1
    outer loop
      vertex -5.08625 -48.9356 1
      vertex -5.5625 -47.92 1
      vertex -4.99812 -47.92 1
    endloop
  endfacet
  facet normal 0 0 -1
    outer loop
      vertex -2.86375 -47.92 1
      vertex -2.3875 -53 1
      vertex -2.86375 -51.9838 1
    endloop
  endfacet
  facet normal 0 0 -1
    outer loop
      vertex -2.86375 -51.9838 1
      vertex -2.95187 -53 1
      vertex -5.08625 -48.9356 1
    endloop
  endfacet
  facet normal 0 0 -1
    outer loop
      vertex -2.86375 -51.9838 1
      vertex -5.08625 -48.9356 1
      vertex -4.99812 -47.92 1
    endloop
  endfacet
  facet normal -2.44921e-16 -1 0
    outer loop
      vertex -2.95187 -53 1
      vertex -2.3875 -53 1
      vertex -2.3875 -53 1.5
    endloop
  endfacet
  facet normal -2.44921e-16 -1 0
    outer loop
      vertex -2.95187 -53 1.5
      vertex -2.95187 -53 1
      vertex -2.3875 -53 1.5
    endloop
  endfacet
  facet normal 0 0 1
    outer loop
      vertex -2.3875 -53 1.5
      vertex -2.3875 -47.92 1.5
      vertex -2.86375 -47.92 1.5
    endloop
  endfacet
  facet normal 0 0 1
    outer loop
      vertex -4.99812 -47.92 1.5
      vertex -2.3875 -53 1.5
      vertex -2.86375 -51.9838 1.5
    endloop
  endfacet
  facet normal 0 0 1
    outer loop
      vertex -2.86375 -51.9838 1.5
      vertex -2.3875 -53 1.5
      vertex -2.86375 -47.92 1.5
    endloop
  endfacet
  facet normal 0 0 1
    outer loop
      vertex -5.5625 -47.92 1.5
      vertex -2.3875 -53 1.5
      vertex -4.99812 -47.92 1.5
    endloop
  endfacet
  facet normal 0 0 1
    outer loop
      vertex -5.08625 -48.9356 1.5
      vertex -2.3875 -53 1.5
      vertex -5.5625 -47.92 1.5
    endloop
  endfacet
  facet normal 0 0 1
    outer loop
      vertex -5.5625 -53 1.5
      vertex -5.08625 -53 1.5
      vertex -5.5625 -47.92 1.5
    endloop
  endfacet
  facet normal 0 0 1
    outer loop
      vertex -5.08625 -53 1.5
      vertex -5.08625 -48.9356 1.5
      vertex -5.5625 -47.92 1.5
    endloop
  endfacet
  facet normal 0 0 1
    outer loop
      vertex -2.95187 -53 1.5
      vertex -2.3875 -53 1.5
      vertex -5.08625 -48.9356 1.5
    endloop
  endfacet
  facet normal -1 2.44921e-16 0
    outer loop
      vertex -2.86375 -47.92 1
      vertex -2.86375 -51.9838 1
      vertex -2.86375 -47.92 1.5
    endloop
  endfacet
  facet normal -1 2.44921e-16 0
    outer loop
      vertex -2.86375 -47.92 1.5
      vertex -2.86375 -51.9838 1
      vertex -2.86375 -51.9838 1.5
    endloop
  endfacet
  facet normal 0.885317 0.464989 0
    outer loop
      vertex -2.86375 -51.9838 1.5
      vertex -2.86375 -51.9838 1
      vertex -4.99812 -47.92 1
    endloop
  endfacet
  facet normal 0.885317 0.464989 0
    outer loop
      vertex -4.99812 -47.92 1.5
      vertex -2.86375 -51.9838 1.5
      vertex -4.99812 -47.92 1
    endloop
  endfacet
  facet normal 2.44921e-16 1 0
    outer loop
      vertex -4.99812 -47.92 1
      vertex -5.5625 -47.92 1
      vertex -4.99812 -47.92 1.5
    endloop
  endfacet
  facet normal 2.44921e-16 1 0
    outer loop
      vertex -4.99812 -47.92 1.5
      vertex -5.5625 -47.92 1
      vertex -5.5625 -47.92 1.5
    endloop
  endfacet
  facet normal -1 2.44921e-16 0
    outer loop
      vertex -5.5625 -47.92 1
      vertex -5.5625 -53 1
      vertex -5.5625 -47.92 1.5
    endloop
  endfacet
  facet normal -1 2.44921e-16 0
    outer loop
      vertex -5.5625 -47.92 1.5
      vertex -5.5625 -53 1
      vertex -5.5625 -53 1.5
    endloop
  endfacet
  facet normal -2.44921e-16 -1 0
    outer loop
      vertex -5.5625 -53 1
      vertex -5.08625 -53 1
      vertex -5.08625 -53 1.5
    endloop
  endfacet
  facet normal -2.44921e-16 -1 0
    outer loop
      vertex -5.5625 -53 1.5
      vertex -5.5625 -53 1
      vertex -5.08625 -53 1.5
    endloop
  endfacet
  facet normal 1 -2.44921e-16 0
    outer loop
      vertex -5.08625 -53 1
      vertex -5.08625 -48.9356 1
      vertex -5.08625 -48.9356 1.5
    endloop
  endfacet
  facet normal 1 -2.44921e-16 0
    outer loop
      vertex -5.08625 -53 1.5
      vertex -5.08625 -53 1
      vertex -5.08625 -48.9356 1.5
    endloop
  endfacet
  facet normal -0.885346 -0.464933 0
    outer loop
      vertex -2.95187 -53 1
      vertex -2.95187 -53 1.5
      vertex -5.08625 -48.9356 1
    endloop
  endfacet
  facet normal -0.885346 -0.464933 0
    outer loop
      vertex -5.08625 -48.9356 1
      vertex -2.95187 -53 1.5
      vertex -5.08625 -48.9356 1.5
    endloop
  endfacet
  facet normal 1 -2.44921e-16 0
    outer loop
      vertex 1.05 -53 1
      vertex 1.05 -47.92 1
      vertex 1.05 -47.92 1.5
    endloop
  endfacet
  facet normal 1 -2.44921e-16 0
    outer loop
      vertex 1.05 -53 1.5
      vertex 1.05 -53 1
      vertex 1.05 -47.92 1.5
    endloop
  endfacet
  facet normal 2.44921e-16 1 0
    outer loop
      vertex 1.05 -47.92 1
      vertex 0.585 -47.92 1
      vertex 1.05 -47.92 1.5
    endloop
  endfacet
  facet normal 2.44921e-16 1 0
    outer loop
      vertex 1.05 -47.92 1.5
      vertex 0.585 -47.92 1
      vertex 0.585 -47.92 1.5
    endloop
  endfacet
  facet normal 0 0 -1
    outer loop
      vertex 1.05 -47.92 1
      vertex 1.05 -53 1
      vertex 0.585 -47.92 1
    endloop
  endfacet
  facet normal 0 0 -1
    outer loop
      vertex 0.585 -50.8406 1
      vertex 1.05 -53 1
      vertex 0.585 -53 1
    endloop
  endfacet
  facet normal 0 0 -1
    outer loop
      vertex 0.585 -47.92 1
      vertex 1.05 -53 1
      vertex 0.585 -50.0787 1
    endloop
  endfacet
  facet normal 0 0 -1
    outer loop
      vertex -1.65937 -50.8406 1
      vertex -1.65937 -53 1
      vertex -2.125 -53 1
    endloop
  endfacet
  facet normal 0 0 -1
    outer loop
      vertex -1.65937 -50.8406 1
      vertex -2.125 -53 1
      vertex -2.125 -47.92 1
    endloop
  endfacet
  facet normal 0 0 -1
    outer loop
      vertex -1.65937 -50.0787 1
      vertex -2.125 -47.92 1
      vertex -1.65937 -47.92 1
    endloop
  endfacet
  facet normal 0 0 -1
    outer loop
      vertex -1.65937 -50.8406 1
      vertex -2.125 -47.92 1
      vertex -1.65937 -50.0787 1
    endloop
  endfacet
  facet normal 0 0 -1
    outer loop
      vertex 0.585 -50.8406 1
      vertex -1.65937 -50.8406 1
      vertex 0.585 -50.0787 1
    endloop
  endfacet
  facet normal 0 0 -1
    outer loop
      vertex 0.585 -50.8406 1
      vertex 0.585 -50.0787 1
      vertex 1.05 -53 1
    endloop
  endfacet
  facet normal 0 0 -1
    outer loop
      vertex 0.585 -50.0787 1
      vertex -1.65937 -50.8406 1
      vertex -1.65937 -50.0787 1
    endloop
  endfacet
  facet normal -2.44921e-16 -1 0
    outer loop
      vertex 0.585 -53 1
      vertex 1.05 -53 1
      vertex 1.05 -53 1.5
    endloop
  endfacet
  facet normal -2.44921e-16 -1 0
    outer loop
      vertex 0.585 -53 1.5
      vertex 0.585 -53 1
      vertex 1.05 -53 1.5
    endloop
  endfacet
  facet normal 0 0 1
    outer loop
      vertex 1.05 -53 1.5
      vertex 1.05 -47.92 1.5
      vertex 0.585 -47.92 1.5
    endloop
  endfacet
  facet normal 0 0 1
    outer loop
      vertex 0.585 -50.8406 1.5
      vertex 1.05 -53 1.5
      vertex 0.585 -50.0787 1.5
    endloop
  endfacet
  facet normal 0 0 1
    outer loop
      vertex 0.585 -50.0787 1.5
      vertex 1.05 -53 1.5
      vertex 0.585 -47.92 1.5
    endloop
  endfacet
  facet normal 0 0 1
    outer loop
      vertex 0.585 -50.8406 1.5
      vertex 0.585 -53 1.5
      vertex 1.05 -53 1.5
    endloop
  endfacet
  facet normal 0 0 1
    outer loop
      vertex -2.125 -47.92 1.5
      vertex -1.65937 -50.0787 1.5
      vertex -1.65937 -47.92 1.5
    endloop
  endfacet
  facet normal 0 0 1
    outer loop
      vertex -2.125 -53 1.5
      vertex -1.65937 -50.0787 1.5
      vertex -2.125 -47.92 1.5
    endloop
  endfacet
  facet normal 0 0 1
    outer loop
      vertex -2.125 -53 1.5
      vertex -1.65937 -50.8406 1.5
      vertex -1.65937 -50.0787 1.5
    endloop
  endfacet
  facet normal 0 0 1
    outer loop
      vertex -2.125 -53 1.5
      vertex -1.65937 -53 1.5
      vertex -1.65937 -50.8406 1.5
    endloop
  endfacet
  facet normal 0 0 1
    outer loop
      vertex -1.65937 -50.0787 1.5
      vertex 0.585 -50.8406 1.5
      vertex 0.585 -50.0787 1.5
    endloop
  endfacet
  facet normal 0 0 1
    outer loop
      vertex -1.65937 -50.8406 1.5
      vertex 0.585 -50.8406 1.5
      vertex -1.65937 -50.0787 1.5
    endloop
  endfacet
  facet normal -1 2.44921e-16 0
    outer loop
      vertex 0.585 -47.92 1
      vertex 0.585 -50.0787 1
      vertex 0.585 -47.92 1.5
    endloop
  endfacet
  facet normal -1 2.44921e-16 0
    outer loop
      vertex 0.585 -47.92 1.5
      vertex 0.585 -50.0787 1
      vertex 0.585 -50.0787 1.5
    endloop
  endfacet
  facet normal 2.44921e-16 1 0
    outer loop
      vertex 0.585 -50.0787 1
      vertex -1.65937 -50.0787 1
      vertex 0.585 -50.0787 1.5
    endloop
  endfacet
  facet normal 2.44921e-16 1 0
    outer loop
      vertex 0.585 -50.0787 1.5
      vertex -1.65937 -50.0787 1
      vertex -1.65937 -50.0787 1.5
    endloop
  endfacet
  facet normal 1 -2.44921e-16 0
    outer loop
      vertex -1.65937 -50.0787 1
      vertex -1.65937 -47.92 1
      vertex -1.65937 -47.92 1.5
    endloop
  endfacet
  facet normal 1 -2.44921e-16 0
    outer loop
      vertex -1.65937 -50.0787 1.5
      vertex -1.65937 -50.0787 1
      vertex -1.65937 -47.92 1.5
    endloop
  endfacet
  facet normal 2.44921e-16 1 0
    outer loop
      vertex -1.65937 -47.92 1
      vertex -2.125 -47.92 1
      vertex -1.65937 -47.92 1.5
    endloop
  endfacet
  facet normal 2.44921e-16 1 0
    outer loop
      vertex -1.65937 -47.92 1.5
      vertex -2.125 -47.92 1
      vertex -2.125 -47.92 1.5
    endloop
  endfacet
  facet normal -1 2.44921e-16 0
    outer loop
      vertex -2.125 -47.92 1
      vertex -2.125 -53 1
      vertex -2.125 -47.92 1.5
    endloop
  endfacet
  facet normal -1 2.44921e-16 0
    outer loop
      vertex -2.125 -47.92 1.5
      vertex -2.125 -53 1
      vertex -2.125 -53 1.5
    endloop
  endfacet
  facet normal -2.44921e-16 -1 0
    outer loop
      vertex -2.125 -53 1
      vertex -1.65937 -53 1
      vertex -1.65937 -53 1.5
    endloop
  endfacet
  facet normal -2.44921e-16 -1 0
    outer loop
      vertex -2.125 -53 1.5
      vertex -2.125 -53 1
      vertex -1.65937 -53 1.5
    endloop
  endfacet
  facet normal 1 -2.44921e-16 0
    outer loop
      vertex -1.65937 -53 1
      vertex -1.65937 -50.8406 1
      vertex -1.65937 -50.8406 1.5
    endloop
  endfacet
  facet normal 1 -2.44921e-16 0
    outer loop
      vertex -1.65937 -53 1.5
      vertex -1.65937 -53 1
      vertex -1.65937 -50.8406 1.5
    endloop
  endfacet
  facet normal -2.44921e-16 -1 0
    outer loop
      vertex -1.65937 -50.8406 1
      vertex 0.585 -50.8406 1
      vertex 0.585 -50.8406 1.5
    endloop
  endfacet
  facet normal -2.44921e-16 -1 0
    outer loop
      vertex -1.65937 -50.8406 1.5
      vertex -1.65937 -50.8406 1
      vertex 0.585 -50.8406 1.5
    endloop
  endfacet
  facet normal -1 2.44921e-16 0
    outer loop
      vertex 0.585 -50.8406 1
      vertex 0.585 -53 1
      vertex 0.585 -50.8406 1.5
    endloop
  endfacet
  facet normal -1 2.44921e-16 0
    outer loop
      vertex 0.585 -50.8406 1.5
      vertex 0.585 -53 1
      vertex 0.585 -53 1.5
    endloop
  endfacet
  facet normal 1 -1.22461e-16 0
    outer loop
      vertex 34.5 2.46 0
      vertex 34.5 57 0
      vertex 34.5 57 18.18
    endloop
  endfacet
  facet normal 1 -1.22461e-16 0
    outer loop
      vertex 34.5 2.46 18.18
      vertex 34.5 2.46 0
      vertex 34.5 57 18.18
    endloop
  endfacet
  facet normal 1.22461e-16 1 0
    outer loop
      vertex 34.5 57 0
      vertex -39.23 57 0
      vertex 34.5 57 18.18
    endloop
  endfacet
  facet normal 1.22461e-16 1 0
    outer loop
      vertex 34.5 57 18.18
      vertex -39.23 57 0
      vertex -39.23 57 18.18
    endloop
  endfacet
  facet normal 0 0 -1
    outer loop
      vertex 34.5 57 0
      vertex 34.5 2.46 0
      vertex -39.23 57 0
    endloop
  endfacet
  facet normal 0 0 -1
    outer loop
      vertex -39.23 57 0
      vertex 34.5 2.46 0
      vertex -39.23 2.46 0
    endloop
  endfacet
  facet normal -1.22461e-16 -1 0
    outer loop
      vertex -39.23 2.46 0
      vertex 34.5 2.46 0
      vertex 34.5 2.46 18.18
    endloop
  endfacet
  facet normal -1.22461e-16 -1 0
    outer loop
      vertex -39.23 2.46 18.18
      vertex -39.23 2.46 0
      vertex 34.5 2.46 18.18
    endloop
  endfacet
  facet normal 0 0 1
    outer loop
      vertex 33.49 55.99 18.18
      vertex 34.5 57 18.18
      vertex -39.23 57 18.18
    endloop
  endfacet
  facet normal 0 0 1
    outer loop
      vertex 34.5 2.46 18.18
      vertex 34.5 57 18.18
      vertex 33.49 55.99 18.18
    endloop
  endfacet
  facet normal 0 0 1
    outer loop
      vertex 33.49 3.47 18.18
      vertex -38.22 3.47 18.18
      vertex 34.5 2.46 18.18
    endloop
  endfacet
  facet normal 0 0 1
    outer loop
      vertex 34.5 2.46 18.18
      vertex 33.49 55.99 18.18
      vertex 33.49 3.47 18.18
    endloop
  endfacet
  facet normal 0 0 1
    outer loop
      vertex -39.23 2.46 18.18
      vertex -38.22 3.47 18.18
      vertex -39.23 57 18.18
    endloop
  endfacet
  facet normal 0 0 1
    outer loop
      vertex -39.23 2.46 18.18
      vertex 34.5 2.46 18.18
      vertex -38.22 3.47 18.18
    endloop
  endfacet
  facet normal 0 0 1
    outer loop
      vertex -38.22 3.47 18.18
      vertex -38.22 55.99 18.18
      vertex -39.23 57 18.18
    endloop
  endfacet
  facet normal 0 0 1
    outer loop
      vertex -38.22 55.99 18.18
      vertex 33.49 55.99 18.18
      vertex -39.23 57 18.18
    endloop
  endfacet
  facet normal -1 1.22461e-16 0
    outer loop
      vertex -39.23 57 0
      vertex -39.23 2.46 0
      vertex -39.23 57 18.18
    endloop
  endfacet
  facet normal -1 1.22461e-16 0
    outer loop
      vertex -39.23 57 18.18
      vertex -39.23 2.46 0
      vertex -39.23 2.46 18.18
    endloop
  endfacet
  facet normal -1 1.22461e-16 0
    outer loop
      vertex 33.49 3.47 18.18
      vertex 33.49 55.99 18.18
      vertex 33.49 3.47 10.1
    endloop
  endfacet
  facet normal -1 1.22461e-16 0
    outer loop
      vertex 33.49 3.47 10.1
      vertex 33.49 55.99 18.18
      vertex 33.49 55.99 10.1
    endloop
  endfacet
  facet normal -1.22461e-16 -1 0
    outer loop
      vertex 33.49 55.99 18.18
      vertex -38.22 55.99 18.18
      vertex -38.22 55.99 10.1
    endloop
  endfacet
  facet normal -1.22461e-16 -1 0
    outer loop
      vertex 33.49 55.99 10.1
      vertex 33.49 55.99 18.18
      vertex -38.22 55.99 10.1
    endloop
  endfacet
  facet normal 1 -1.22461e-16 0
    outer loop
      vertex -38.22 55.99 18.18
      vertex -38.22 3.47 18.18
      vertex -38.22 3.47 10.1
    endloop
  endfacet
  facet normal 1 -1.22461e-16 0
    outer loop
      vertex -38.22 55.99 10.1
      vertex -38.22 55.99 18.18
      vertex -38.22 3.47 10.1
    endloop
  endfacet
  facet normal 1.22461e-16 1 0
    outer loop
      vertex -38.22 3.47 18.18
      vertex 33.49 3.47 18.18
      vertex -38.22 3.47 10.1
    endloop
  endfacet
  facet normal 1.22461e-16 1 0
    outer loop
      vertex -38.22 3.47 10.1
      vertex 33.49 3.47 18.18
      vertex 33.49 3.47 10.1
    endloop
  endfacet
  facet normal 0 0 1
    outer loop
      vertex -37.21 4.48 10.1
      vertex -38.22 3.47 10.1
      vertex 33.49 3.47 10.1
    endloop
  endfacet
  facet normal 0 0 1
    outer loop
      vertex 33.49 55.99 10.1
      vertex 32.48 4.48 10.1
      vertex 33.49 3.47 10.1
    endloop
  endfacet
  facet normal 0 0 1
    outer loop
      vertex -38.22 55.99 10.1
      vertex -38.22 3.47 10.1
      vertex -37.21 4.48 10.1
    endloop
  endfacet
  facet normal 0 0 1
    outer loop
      vertex -37.21 54.98 10.1
      vertex 32.48 54.98 10.1
      vertex -38.22 55.99 10.1
    endloop
  endfacet
  facet normal 0 0 1
    outer loop
      vertex -38.22 55.99 10.1
      vertex -37.21 4.48 10.1
      vertex -37.21 54.98 10.1
    endloop
  endfacet
  facet normal 0 0 1
    outer loop
      vertex 33.49 55.99 10.1
      vertex 32.48 54.98 10.1
      vertex 32.48 4.48 10.1
    endloop
  endfacet
  facet normal 0 0 1
    outer loop
      vertex 33.49 55.99 10.1
      vertex -38.22 55.99 10.1
      vertex 32.48 54.98 10.1
    endloop
  endfacet
  facet normal 0 0 1
    outer loop
      vertex 32.48 4.48 10.1
      vertex -37.21 4.48 10.1
      vertex 33.49 3.47 10.1
    endloop
  endfacet
  facet normal -1 1.22461e-16 0
    outer loop
      vertex 32.48 4.48 10.1
      vertex 32.48 54.98 10.1
      vertex 32.48 4.48 2.02
    endloop
  endfacet
  facet normal -1 1.22461e-16 0
    outer loop
      vertex 32.48 4.48 2.02
      vertex 32.48 54.98 10.1
      vertex 32.48 54.98 2.02
    endloop
  endfacet
  facet normal 1.22461e-16 1 0
    outer loop
      vertex -37.21 4.48 10.1
      vertex 32.48 4.48 10.1
      vertex -37.21 4.48 2.02
    endloop
  endfacet
  facet normal 1.22461e-16 1 0
    outer loop
      vertex -37.21 4.48 2.02
      vertex 32.48 4.48 10.1
      vertex 32.48 4.48 2.02
    endloop
  endfacet
  facet normal -1.22461e-16 -1 0
    outer loop
      vertex 32.48 54.98 10.1
      vertex -37.21 54.98 10.1
      vertex -37.21 54.98 2.02
    endloop
  endfacet
  facet normal -1.22461e-16 -1 0
    outer loop
      vertex 32.48 54.98 2.02
      vertex 32.48 54.98 10.1
      vertex -37.21 54.98 2.02
    endloop
  endfacet
  facet normal 1 -1.22461e-16 0
    outer loop
      vertex -37.21 54.98 10.1
      vertex -37.21 4.48 10.1
      vertex -37.21 4.48 2.02
    endloop
  endfacet
  facet normal 1 -1.22461e-16 0
    outer loop
      vertex -37.21 54.98 2.02
      vertex -37.21 54.98 10.1
      vertex -37.21 4.48 2.02
    endloop
  endfacet
  facet normal 0 0 1
    outer loop
      vertex -37.21 54.98 2.02
      vertex -37.21 4.48 2.02
      vertex 32.48 4.48 2.02
    endloop
  endfacet
  facet normal 0 0 1
    outer loop
      vertex 32.48 54.98 2.02
      vertex -37.21 54.98 2.02
      vertex 32.48 4.48 2.02
    endloop
  endfacet
endsolid OpenSCAD_Model
