solid OpenSCAD_Model
  facet normal 2.44921e-16 1 0
    outer loop
      vertex 34.5 -4 0
      vertex -38.5 -4 0
      vertex 34.5 -4 79.079
    endloop
  endfacet
  facet normal 2.44921e-16 1 0
    outer loop
      vertex 34.5 -4 79.079
      vertex -38.5 -4 0
      vertex -38.5 -4 79.079
    endloop
  endfacet
  facet normal 0 0 -1
    outer loop
      vertex 34.5 -4 0
      vertex 34.5 -48 0
      vertex -38.5 -4 0
    endloop
  endfacet
  facet normal 0 0 -1
    outer loop
      vertex -38.5 -4 0
      vertex 34.5 -48 0
      vertex -38.5 -48 0
    endloop
  endfacet
  facet normal 1 -2.44921e-16 0
    outer loop
      vertex 34.5 -48 0
      vertex 34.5 -4 0
      vertex 34.5 -4 79.079
    endloop
  endfacet
  facet normal 1 -2.44921e-16 0
    outer loop
      vertex 34.5 -48 79.079
      vertex 34.5 -48 0
      vertex 34.5 -4 79.079
    endloop
  endfacet
  facet normal -1.22461e-16 2.99932e-32 1
    outer loop
      vertex -37.509 -47.004 79.079
      vertex -38.5 -48 79.079
      vertex 34.5 -48 79.079
    endloop
  endfacet
  facet normal -1.22461e-16 2.99932e-32 1
    outer loop
      vertex 34.5 -4 79.079
      vertex 33.562 -47.004 79.079
      vertex 34.5 -48 79.079
    endloop
  endfacet
  facet normal -1.22461e-16 2.99932e-32 1
    outer loop
      vertex -38.5 -4 79.079
      vertex -38.5 -48 79.079
      vertex -37.509 -47.004 79.079
    endloop
  endfacet
  facet normal -1.22461e-16 2.99932e-32 1
    outer loop
      vertex -37.509 -4.96203 79.079
      vertex 33.562 -4.96203 79.079
      vertex -38.5 -4 79.079
    endloop
  endfacet
  facet normal -1.22461e-16 2.99932e-32 1
    outer loop
      vertex -38.5 -4 79.079
      vertex -37.509 -47.004 79.079
      vertex -37.509 -4.96203 79.079
    endloop
  endfacet
  facet normal -1.22461e-16 2.99932e-32 1
    outer loop
      vertex 34.5 -4 79.079
      vertex 33.562 -4.96203 79.079
      vertex 33.562 -47.004 79.079
    endloop
  endfacet
  facet normal -1.22461e-16 2.99932e-32 1
    outer loop
      vertex 34.5 -4 79.079
      vertex -38.5 -4 79.079
      vertex 33.562 -4.96203 79.079
    endloop
  endfacet
  facet normal -1.22461e-16 2.99932e-32 1
    outer loop
      vertex 33.562 -47.004 79.079
      vertex -37.509 -47.004 79.079
      vertex 34.5 -48 79.079
    endloop
  endfacet
  facet normal -1 2.44921e-16 0
    outer loop
      vertex -38.5 -4 0
      vertex -38.5 -48 0
      vertex -38.5 -4 79.079
    endloop
  endfacet
  facet normal -1 2.44921e-16 0
    outer loop
      vertex -38.5 -4 79.079
      vertex -38.5 -48 0
      vertex -38.5 -48 79.079
    endloop
  endfacet
  facet normal -2.44921e-16 -1 0
    outer loop
      vertex -38.5 -48 0
      vertex 34.5 -48 0
      vertex 34.5 -48 79.079
    endloop
  endfacet
  facet normal -2.44921e-16 -1 0
    outer loop
      vertex -38.5 -48 79.079
      vertex -38.5 -48 0
      vertex 34.5 -48 79.079
    endloop
  endfacet
  facet normal 1 -2.44921e-16 1.22461e-16
    outer loop
      vertex 33.562 -47.004 79.079
      vertex 33.562 -4.96203 79.079
      vertex 33.562 -4.96203 87
    endloop
  endfacet
  facet normal 1 -2.44921e-16 1.22461e-16
    outer loop
      vertex 33.562 -47.004 87
      vertex 33.562 -47.004 79.079
      vertex 33.562 -4.96203 87
    endloop
  endfacet
  facet normal -2.44921e-16 -1 0
    outer loop
      vertex -37.509 -47.004 79.079
      vertex 33.562 -47.004 79.079
      vertex 33.562 -47.004 87
    endloop
  endfacet
  facet normal -2.44921e-16 -1 0
    outer loop
      vertex -37.509 -47.004 87
      vertex -37.509 -47.004 79.079
      vertex 33.562 -47.004 87
    endloop
  endfacet
  facet normal 2.44921e-16 1 0
    outer loop
      vertex 33.562 -4.96203 79.079
      vertex -37.509 -4.96203 79.079
      vertex 33.562 -4.96203 87
    endloop
  endfacet
  facet normal 2.44921e-16 1 0
    outer loop
      vertex 33.562 -4.96203 87
      vertex -37.509 -4.96203 79.079
      vertex -37.509 -4.96203 87
    endloop
  endfacet
  facet normal -1 2.44921e-16 -1.22461e-16
    outer loop
      vertex -37.509 -4.96203 79.079
      vertex -37.509 -47.004 79.079
      vertex -37.509 -4.96203 87
    endloop
  endfacet
  facet normal -1 2.44921e-16 -1.22461e-16
    outer loop
      vertex -37.509 -4.96203 87
      vertex -37.509 -47.004 79.079
      vertex -37.509 -47.004 87
    endloop
  endfacet
  facet normal 0 0 1
    outer loop
      vertex 32.5 -6 87
      vertex 33.562 -4.96203 87
      vertex -37.509 -4.96203 87
    endloop
  endfacet
  facet normal 0 0 1
    outer loop
      vertex 33.562 -47.004 87
      vertex 33.562 -4.96203 87
      vertex 32.5 -6 87
    endloop
  endfacet
  facet normal 0 0 1
    outer loop
      vertex 32.5 -46 87
      vertex -36.5 -46 87
      vertex 33.562 -47.004 87
    endloop
  endfacet
  facet normal 0 0 1
    outer loop
      vertex 33.562 -47.004 87
      vertex 32.5 -6 87
      vertex 32.5 -46 87
    endloop
  endfacet
  facet normal 0 0 1
    outer loop
      vertex -37.509 -47.004 87
      vertex -36.5 -46 87
      vertex -37.509 -4.96203 87
    endloop
  endfacet
  facet normal 0 0 1
    outer loop
      vertex -37.509 -47.004 87
      vertex 33.562 -47.004 87
      vertex -36.5 -46 87
    endloop
  endfacet
  facet normal 0 0 1
    outer loop
      vertex -36.5 -46 87
      vertex -36.5 -6 87
      vertex -37.509 -4.96203 87
    endloop
  endfacet
  facet normal 0 0 1
    outer loop
      vertex -36.5 -6 87
      vertex 32.5 -6 87
      vertex -37.509 -4.96203 87
    endloop
  endfacet
  facet normal -2.44921e-16 -1 0
    outer loop
      vertex 32.5 -6 87
      vertex -36.5 -6 87
      vertex -36.5 -6 2
    endloop
  endfacet
  facet normal -2.44921e-16 -1 0
    outer loop
      vertex 32.5 -6 2
      vertex 32.5 -6 87
      vertex -36.5 -6 2
    endloop
  endfacet
  facet normal -1 2.44921e-16 0
    outer loop
      vertex 32.5 -46 87
      vertex 32.5 -6 87
      vertex 32.5 -46 2
    endloop
  endfacet
  facet normal -1 2.44921e-16 0
    outer loop
      vertex 32.5 -46 2
      vertex 32.5 -6 87
      vertex 32.5 -6 2
    endloop
  endfacet
  facet normal 1 -2.44921e-16 0
    outer loop
      vertex -36.5 -6 87
      vertex -36.5 -46 87
      vertex -36.5 -46 2
    endloop
  endfacet
  facet normal 1 -2.44921e-16 0
    outer loop
      vertex -36.5 -6 2
      vertex -36.5 -6 87
      vertex -36.5 -46 2
    endloop
  endfacet
  facet normal 2.44921e-16 1 0
    outer loop
      vertex -36.5 -46 87
      vertex 32.5 -46 87
      vertex -36.5 -46 2
    endloop
  endfacet
  facet normal 2.44921e-16 1 0
    outer loop
      vertex -36.5 -46 2
      vertex 32.5 -46 87
      vertex 32.5 -46 2
    endloop
  endfacet
  facet normal 0 0 1
    outer loop
      vertex -36.5 -6 2
      vertex -36.5 -46 2
      vertex 32.5 -46 2
    endloop
  endfacet
  facet normal 0 0 1
    outer loop
      vertex 32.5 -6 2
      vertex -36.5 -6 2
      vertex 32.5 -46 2
    endloop
  endfacet
  facet normal 1 -2.44921e-16 0
    outer loop
      vertex -5.825 -38.6819 1
      vertex -5.825 -37.92 1
      vertex -5.825 -37.92 1.5
    endloop
  endfacet
  facet normal 1 -2.44921e-16 0
    outer loop
      vertex -5.825 -38.6819 1.5
      vertex -5.825 -38.6819 1
      vertex -5.825 -37.92 1.5
    endloop
  endfacet
  facet normal 2.44921e-16 1 0
    outer loop
      vertex -5.825 -37.92 1
      vertex -9 -37.92 1
      vertex -5.825 -37.92 1.5
    endloop
  endfacet
  facet normal 2.44921e-16 1 0
    outer loop
      vertex -5.825 -37.92 1.5
      vertex -9 -37.92 1
      vertex -9 -37.92 1.5
    endloop
  endfacet
  facet normal 0 0 -1
    outer loop
      vertex -5.825 -37.92 1
      vertex -5.825 -38.6819 1
      vertex -9 -37.92 1
    endloop
  endfacet
  facet normal 0 0 -1
    outer loop
      vertex -9 -37.92 1
      vertex -5.825 -38.6819 1
      vertex -7.17437 -38.6819 1
    endloop
  endfacet
  facet normal 0 0 -1
    outer loop
      vertex -7.65062 -38.6819 1
      vertex -7.17437 -38.6819 1
      vertex -7.17437 -43 1
    endloop
  endfacet
  facet normal 0 0 -1
    outer loop
      vertex -9 -37.92 1
      vertex -7.17437 -38.6819 1
      vertex -7.65062 -38.6819 1
    endloop
  endfacet
  facet normal 0 0 -1
    outer loop
      vertex -9 -38.6819 1
      vertex -9 -37.92 1
      vertex -7.65062 -38.6819 1
    endloop
  endfacet
  facet normal 0 0 -1
    outer loop
      vertex -7.65062 -38.6819 1
      vertex -7.17437 -43 1
      vertex -7.65062 -43 1
    endloop
  endfacet
  facet normal -2.44921e-16 -1 0
    outer loop
      vertex -7.17437 -38.6819 1
      vertex -5.825 -38.6819 1
      vertex -5.825 -38.6819 1.5
    endloop
  endfacet
  facet normal -2.44921e-16 -1 0
    outer loop
      vertex -7.17437 -38.6819 1.5
      vertex -7.17437 -38.6819 1
      vertex -5.825 -38.6819 1.5
    endloop
  endfacet
  facet normal 0 0 1
    outer loop
      vertex -5.825 -38.6819 1.5
      vertex -5.825 -37.92 1.5
      vertex -9 -37.92 1.5
    endloop
  endfacet
  facet normal 0 0 1
    outer loop
      vertex -7.17437 -38.6819 1.5
      vertex -5.825 -38.6819 1.5
      vertex -9 -37.92 1.5
    endloop
  endfacet
  facet normal 0 0 1
    outer loop
      vertex -7.65062 -38.6819 1.5
      vertex -7.17437 -38.6819 1.5
      vertex -9 -37.92 1.5
    endloop
  endfacet
  facet normal 0 0 1
    outer loop
      vertex -9 -38.6819 1.5
      vertex -7.65062 -38.6819 1.5
      vertex -9 -37.92 1.5
    endloop
  endfacet
  facet normal 0 0 1
    outer loop
      vertex -7.65062 -43 1.5
      vertex -7.17437 -38.6819 1.5
      vertex -7.65062 -38.6819 1.5
    endloop
  endfacet
  facet normal 0 0 1
    outer loop
      vertex -7.17437 -43 1.5
      vertex -7.17437 -38.6819 1.5
      vertex -7.65062 -43 1.5
    endloop
  endfacet
  facet normal -1 2.44921e-16 0
    outer loop
      vertex -9 -37.92 1
      vertex -9 -38.6819 1
      vertex -9 -37.92 1.5
    endloop
  endfacet
  facet normal -1 2.44921e-16 0
    outer loop
      vertex -9 -37.92 1.5
      vertex -9 -38.6819 1
      vertex -9 -38.6819 1.5
    endloop
  endfacet
  facet normal -2.44921e-16 -1 0
    outer loop
      vertex -9 -38.6819 1
      vertex -7.65062 -38.6819 1
      vertex -7.65062 -38.6819 1.5
    endloop
  endfacet
  facet normal -2.44921e-16 -1 0
    outer loop
      vertex -9 -38.6819 1.5
      vertex -9 -38.6819 1
      vertex -7.65062 -38.6819 1.5
    endloop
  endfacet
  facet normal -1 2.44921e-16 0
    outer loop
      vertex -7.65062 -38.6819 1
      vertex -7.65062 -43 1
      vertex -7.65062 -38.6819 1.5
    endloop
  endfacet
  facet normal -1 2.44921e-16 0
    outer loop
      vertex -7.65062 -38.6819 1.5
      vertex -7.65062 -43 1
      vertex -7.65062 -43 1.5
    endloop
  endfacet
  facet normal -2.44921e-16 -1 0
    outer loop
      vertex -7.65062 -43 1
      vertex -7.17437 -43 1
      vertex -7.17437 -43 1.5
    endloop
  endfacet
  facet normal -2.44921e-16 -1 0
    outer loop
      vertex -7.65062 -43 1.5
      vertex -7.65062 -43 1
      vertex -7.17437 -43 1.5
    endloop
  endfacet
  facet normal 1 -2.44921e-16 0
    outer loop
      vertex -7.17437 -43 1
      vertex -7.17437 -38.6819 1
      vertex -7.17437 -38.6819 1.5
    endloop
  endfacet
  facet normal 1 -2.44921e-16 0
    outer loop
      vertex -7.17437 -43 1.5
      vertex -7.17437 -43 1
      vertex -7.17437 -38.6819 1.5
    endloop
  endfacet
  facet normal 1 -2.44921e-16 0
    outer loop
      vertex -2.3875 -43 1
      vertex -2.3875 -37.92 1
      vertex -2.3875 -37.92 1.5
    endloop
  endfacet
  facet normal 1 -2.44921e-16 0
    outer loop
      vertex -2.3875 -43 1.5
      vertex -2.3875 -43 1
      vertex -2.3875 -37.92 1.5
    endloop
  endfacet
  facet normal 2.44921e-16 1 0
    outer loop
      vertex -2.3875 -37.92 1
      vertex -2.86375 -37.92 1
      vertex -2.3875 -37.92 1.5
    endloop
  endfacet
  facet normal 2.44921e-16 1 0
    outer loop
      vertex -2.3875 -37.92 1.5
      vertex -2.86375 -37.92 1
      vertex -2.86375 -37.92 1.5
    endloop
  endfacet
  facet normal 0 0 -1
    outer loop
      vertex -2.3875 -37.92 1
      vertex -2.3875 -43 1
      vertex -2.86375 -37.92 1
    endloop
  endfacet
  facet normal 0 0 -1
    outer loop
      vertex -2.86375 -41.9838 1
      vertex -2.3875 -43 1
      vertex -2.95187 -43 1
    endloop
  endfacet
  facet normal 0 0 -1
    outer loop
      vertex -5.08625 -38.9356 1
      vertex -5.08625 -43 1
      vertex -5.5625 -43 1
    endloop
  endfacet
  facet normal 0 0 -1
    outer loop
      vertex -5.08625 -38.9356 1
      vertex -5.5625 -43 1
      vertex -5.5625 -37.92 1
    endloop
  endfacet
  facet normal 0 0 -1
    outer loop
      vertex -5.08625 -38.9356 1
      vertex -5.5625 -37.92 1
      vertex -4.99812 -37.92 1
    endloop
  endfacet
  facet normal 0 0 -1
    outer loop
      vertex -2.86375 -37.92 1
      vertex -2.3875 -43 1
      vertex -2.86375 -41.9838 1
    endloop
  endfacet
  facet normal 0 0 -1
    outer loop
      vertex -2.86375 -41.9838 1
      vertex -2.95187 -43 1
      vertex -5.08625 -38.9356 1
    endloop
  endfacet
  facet normal 0 0 -1
    outer loop
      vertex -2.86375 -41.9838 1
      vertex -5.08625 -38.9356 1
      vertex -4.99812 -37.92 1
    endloop
  endfacet
  facet normal -2.44921e-16 -1 0
    outer loop
      vertex -2.95187 -43 1
      vertex -2.3875 -43 1
      vertex -2.3875 -43 1.5
    endloop
  endfacet
  facet normal -2.44921e-16 -1 0
    outer loop
      vertex -2.95187 -43 1.5
      vertex -2.95187 -43 1
      vertex -2.3875 -43 1.5
    endloop
  endfacet
  facet normal 0 0 1
    outer loop
      vertex -2.3875 -43 1.5
      vertex -2.3875 -37.92 1.5
      vertex -2.86375 -37.92 1.5
    endloop
  endfacet
  facet normal 0 0 1
    outer loop
      vertex -4.99812 -37.92 1.5
      vertex -2.3875 -43 1.5
      vertex -2.86375 -41.9838 1.5
    endloop
  endfacet
  facet normal 0 0 1
    outer loop
      vertex -2.86375 -41.9838 1.5
      vertex -2.3875 -43 1.5
      vertex -2.86375 -37.92 1.5
    endloop
  endfacet
  facet normal 0 0 1
    outer loop
      vertex -5.5625 -37.92 1.5
      vertex -2.3875 -43 1.5
      vertex -4.99812 -37.92 1.5
    endloop
  endfacet
  facet normal 0 0 1
    outer loop
      vertex -5.08625 -38.9356 1.5
      vertex -2.3875 -43 1.5
      vertex -5.5625 -37.92 1.5
    endloop
  endfacet
  facet normal 0 0 1
    outer loop
      vertex -5.5625 -43 1.5
      vertex -5.08625 -43 1.5
      vertex -5.5625 -37.92 1.5
    endloop
  endfacet
  facet normal 0 0 1
    outer loop
      vertex -5.08625 -43 1.5
      vertex -5.08625 -38.9356 1.5
      vertex -5.5625 -37.92 1.5
    endloop
  endfacet
  facet normal 0 0 1
    outer loop
      vertex -2.95187 -43 1.5
      vertex -2.3875 -43 1.5
      vertex -5.08625 -38.9356 1.5
    endloop
  endfacet
  facet normal -1 2.44921e-16 0
    outer loop
      vertex -2.86375 -37.92 1
      vertex -2.86375 -41.9838 1
      vertex -2.86375 -37.92 1.5
    endloop
  endfacet
  facet normal -1 2.44921e-16 0
    outer loop
      vertex -2.86375 -37.92 1.5
      vertex -2.86375 -41.9838 1
      vertex -2.86375 -41.9838 1.5
    endloop
  endfacet
  facet normal 0.885317 0.464989 0
    outer loop
      vertex -2.86375 -41.9838 1.5
      vertex -2.86375 -41.9838 1
      vertex -4.99812 -37.92 1
    endloop
  endfacet
  facet normal 0.885317 0.464989 0
    outer loop
      vertex -4.99812 -37.92 1.5
      vertex -2.86375 -41.9838 1.5
      vertex -4.99812 -37.92 1
    endloop
  endfacet
  facet normal 2.44921e-16 1 0
    outer loop
      vertex -4.99812 -37.92 1
      vertex -5.5625 -37.92 1
      vertex -4.99812 -37.92 1.5
    endloop
  endfacet
  facet normal 2.44921e-16 1 0
    outer loop
      vertex -4.99812 -37.92 1.5
      vertex -5.5625 -37.92 1
      vertex -5.5625 -37.92 1.5
    endloop
  endfacet
  facet normal -1 2.44921e-16 0
    outer loop
      vertex -5.5625 -37.92 1
      vertex -5.5625 -43 1
      vertex -5.5625 -37.92 1.5
    endloop
  endfacet
  facet normal -1 2.44921e-16 0
    outer loop
      vertex -5.5625 -37.92 1.5
      vertex -5.5625 -43 1
      vertex -5.5625 -43 1.5
    endloop
  endfacet
  facet normal -2.44921e-16 -1 0
    outer loop
      vertex -5.5625 -43 1
      vertex -5.08625 -43 1
      vertex -5.08625 -43 1.5
    endloop
  endfacet
  facet normal -2.44921e-16 -1 0
    outer loop
      vertex -5.5625 -43 1.5
      vertex -5.5625 -43 1
      vertex -5.08625 -43 1.5
    endloop
  endfacet
  facet normal 1 -2.44921e-16 0
    outer loop
      vertex -5.08625 -43 1
      vertex -5.08625 -38.9356 1
      vertex -5.08625 -38.9356 1.5
    endloop
  endfacet
  facet normal 1 -2.44921e-16 0
    outer loop
      vertex -5.08625 -43 1.5
      vertex -5.08625 -43 1
      vertex -5.08625 -38.9356 1.5
    endloop
  endfacet
  facet normal -0.885346 -0.464933 0
    outer loop
      vertex -2.95187 -43 1
      vertex -2.95187 -43 1.5
      vertex -5.08625 -38.9356 1
    endloop
  endfacet
  facet normal -0.885346 -0.464933 0
    outer loop
      vertex -5.08625 -38.9356 1
      vertex -2.95187 -43 1.5
      vertex -5.08625 -38.9356 1.5
    endloop
  endfacet
  facet normal 1 -2.44921e-16 0
    outer loop
      vertex 1.05 -43 1
      vertex 1.05 -37.92 1
      vertex 1.05 -37.92 1.5
    endloop
  endfacet
  facet normal 1 -2.44921e-16 0
    outer loop
      vertex 1.05 -43 1.5
      vertex 1.05 -43 1
      vertex 1.05 -37.92 1.5
    endloop
  endfacet
  facet normal 2.44921e-16 1 0
    outer loop
      vertex 1.05 -37.92 1
      vertex 0.585 -37.92 1
      vertex 1.05 -37.92 1.5
    endloop
  endfacet
  facet normal 2.44921e-16 1 0
    outer loop
      vertex 1.05 -37.92 1.5
      vertex 0.585 -37.92 1
      vertex 0.585 -37.92 1.5
    endloop
  endfacet
  facet normal 0 0 -1
    outer loop
      vertex 1.05 -37.92 1
      vertex 1.05 -43 1
      vertex 0.585 -37.92 1
    endloop
  endfacet
  facet normal 0 0 -1
    outer loop
      vertex 0.585 -40.8406 1
      vertex 1.05 -43 1
      vertex 0.585 -43 1
    endloop
  endfacet
  facet normal 0 0 -1
    outer loop
      vertex 0.585 -37.92 1
      vertex 1.05 -43 1
      vertex 0.585 -40.0787 1
    endloop
  endfacet
  facet normal 0 0 -1
    outer loop
      vertex -1.65937 -40.8406 1
      vertex -1.65937 -43 1
      vertex -2.125 -43 1
    endloop
  endfacet
  facet normal 0 0 -1
    outer loop
      vertex -1.65937 -40.8406 1
      vertex -2.125 -43 1
      vertex -2.125 -37.92 1
    endloop
  endfacet
  facet normal 0 0 -1
    outer loop
      vertex -1.65937 -40.0787 1
      vertex -2.125 -37.92 1
      vertex -1.65937 -37.92 1
    endloop
  endfacet
  facet normal 0 0 -1
    outer loop
      vertex -1.65937 -40.8406 1
      vertex -2.125 -37.92 1
      vertex -1.65937 -40.0787 1
    endloop
  endfacet
  facet normal 0 0 -1
    outer loop
      vertex 0.585 -40.8406 1
      vertex -1.65937 -40.8406 1
      vertex 0.585 -40.0787 1
    endloop
  endfacet
  facet normal 0 0 -1
    outer loop
      vertex 0.585 -40.8406 1
      vertex 0.585 -40.0787 1
      vertex 1.05 -43 1
    endloop
  endfacet
  facet normal 0 0 -1
    outer loop
      vertex 0.585 -40.0787 1
      vertex -1.65937 -40.8406 1
      vertex -1.65937 -40.0787 1
    endloop
  endfacet
  facet normal -2.44921e-16 -1 0
    outer loop
      vertex 0.585 -43 1
      vertex 1.05 -43 1
      vertex 1.05 -43 1.5
    endloop
  endfacet
  facet normal -2.44921e-16 -1 0
    outer loop
      vertex 0.585 -43 1.5
      vertex 0.585 -43 1
      vertex 1.05 -43 1.5
    endloop
  endfacet
  facet normal 0 0 1
    outer loop
      vertex 1.05 -43 1.5
      vertex 1.05 -37.92 1.5
      vertex 0.585 -37.92 1.5
    endloop
  endfacet
  facet normal 0 0 1
    outer loop
      vertex 0.585 -40.8406 1.5
      vertex 1.05 -43 1.5
      vertex 0.585 -40.0787 1.5
    endloop
  endfacet
  facet normal 0 0 1
    outer loop
      vertex 0.585 -40.0787 1.5
      vertex 1.05 -43 1.5
      vertex 0.585 -37.92 1.5
    endloop
  endfacet
  facet normal 0 0 1
    outer loop
      vertex 0.585 -40.8406 1.5
      vertex 0.585 -43 1.5
      vertex 1.05 -43 1.5
    endloop
  endfacet
  facet normal 0 0 1
    outer loop
      vertex -2.125 -37.92 1.5
      vertex -1.65937 -40.0787 1.5
      vertex -1.65937 -37.92 1.5
    endloop
  endfacet
  facet normal 0 0 1
    outer loop
      vertex -2.125 -43 1.5
      vertex -1.65937 -40.0787 1.5
      vertex -2.125 -37.92 1.5
    endloop
  endfacet
  facet normal 0 0 1
    outer loop
      vertex -2.125 -43 1.5
      vertex -1.65937 -40.8406 1.5
      vertex -1.65937 -40.0787 1.5
    endloop
  endfacet
  facet normal 0 0 1
    outer loop
      vertex -2.125 -43 1.5
      vertex -1.65937 -43 1.5
      vertex -1.65937 -40.8406 1.5
    endloop
  endfacet
  facet normal 0 0 1
    outer loop
      vertex -1.65937 -40.0787 1.5
      vertex 0.585 -40.8406 1.5
      vertex 0.585 -40.0787 1.5
    endloop
  endfacet
  facet normal 0 0 1
    outer loop
      vertex -1.65937 -40.8406 1.5
      vertex 0.585 -40.8406 1.5
      vertex -1.65937 -40.0787 1.5
    endloop
  endfacet
  facet normal -1 2.44921e-16 0
    outer loop
      vertex 0.585 -37.92 1
      vertex 0.585 -40.0787 1
      vertex 0.585 -37.92 1.5
    endloop
  endfacet
  facet normal -1 2.44921e-16 0
    outer loop
      vertex 0.585 -37.92 1.5
      vertex 0.585 -40.0787 1
      vertex 0.585 -40.0787 1.5
    endloop
  endfacet
  facet normal 2.44921e-16 1 0
    outer loop
      vertex 0.585 -40.0787 1
      vertex -1.65937 -40.0787 1
      vertex 0.585 -40.0787 1.5
    endloop
  endfacet
  facet normal 2.44921e-16 1 0
    outer loop
      vertex 0.585 -40.0787 1.5
      vertex -1.65937 -40.0787 1
      vertex -1.65937 -40.0787 1.5
    endloop
  endfacet
  facet normal 1 -2.44921e-16 0
    outer loop
      vertex -1.65937 -40.0787 1
      vertex -1.65937 -37.92 1
      vertex -1.65937 -37.92 1.5
    endloop
  endfacet
  facet normal 1 -2.44921e-16 0
    outer loop
      vertex -1.65937 -40.0787 1.5
      vertex -1.65937 -40.0787 1
      vertex -1.65937 -37.92 1.5
    endloop
  endfacet
  facet normal 2.44921e-16 1 0
    outer loop
      vertex -1.65937 -37.92 1
      vertex -2.125 -37.92 1
      vertex -1.65937 -37.92 1.5
    endloop
  endfacet
  facet normal 2.44921e-16 1 0
    outer loop
      vertex -1.65937 -37.92 1.5
      vertex -2.125 -37.92 1
      vertex -2.125 -37.92 1.5
    endloop
  endfacet
  facet normal -1 2.44921e-16 0
    outer loop
      vertex -2.125 -37.92 1
      vertex -2.125 -43 1
      vertex -2.125 -37.92 1.5
    endloop
  endfacet
  facet normal -1 2.44921e-16 0
    outer loop
      vertex -2.125 -37.92 1.5
      vertex -2.125 -43 1
      vertex -2.125 -43 1.5
    endloop
  endfacet
  facet normal -2.44921e-16 -1 0
    outer loop
      vertex -2.125 -43 1
      vertex -1.65937 -43 1
      vertex -1.65937 -43 1.5
    endloop
  endfacet
  facet normal -2.44921e-16 -1 0
    outer loop
      vertex -2.125 -43 1.5
      vertex -2.125 -43 1
      vertex -1.65937 -43 1.5
    endloop
  endfacet
  facet normal 1 -2.44921e-16 0
    outer loop
      vertex -1.65937 -43 1
      vertex -1.65937 -40.8406 1
      vertex -1.65937 -40.8406 1.5
    endloop
  endfacet
  facet normal 1 -2.44921e-16 0
    outer loop
      vertex -1.65937 -43 1.5
      vertex -1.65937 -43 1
      vertex -1.65937 -40.8406 1.5
    endloop
  endfacet
  facet normal -2.44921e-16 -1 0
    outer loop
      vertex -1.65937 -40.8406 1
      vertex 0.585 -40.8406 1
      vertex 0.585 -40.8406 1.5
    endloop
  endfacet
  facet normal -2.44921e-16 -1 0
    outer loop
      vertex -1.65937 -40.8406 1.5
      vertex -1.65937 -40.8406 1
      vertex 0.585 -40.8406 1.5
    endloop
  endfacet
  facet normal -1 2.44921e-16 0
    outer loop
      vertex 0.585 -40.8406 1
      vertex 0.585 -43 1
      vertex 0.585 -40.8406 1.5
    endloop
  endfacet
  facet normal -1 2.44921e-16 0
    outer loop
      vertex 0.585 -40.8406 1.5
      vertex 0.585 -43 1
      vertex 0.585 -43 1.5
    endloop
  endfacet
  facet normal 1 -1.22461e-16 0
    outer loop
      vertex 34.5 2.56 0
      vertex 34.5 47 0
      vertex 34.5 47 18.18
    endloop
  endfacet
  facet normal 1 -1.22461e-16 0
    outer loop
      vertex 34.5 2.56 18.18
      vertex 34.5 2.56 0
      vertex 34.5 47 18.18
    endloop
  endfacet
  facet normal 1.22461e-16 1 0
    outer loop
      vertex 34.5 47 0
      vertex -39.23 47 0
      vertex 34.5 47 18.18
    endloop
  endfacet
  facet normal 1.22461e-16 1 0
    outer loop
      vertex 34.5 47 18.18
      vertex -39.23 47 0
      vertex -39.23 47 18.18
    endloop
  endfacet
  facet normal 0 0 -1
    outer loop
      vertex 34.5 47 0
      vertex 34.5 2.56 0
      vertex -39.23 47 0
    endloop
  endfacet
  facet normal 0 0 -1
    outer loop
      vertex -39.23 47 0
      vertex 34.5 2.56 0
      vertex -39.23 2.56 0
    endloop
  endfacet
  facet normal -1.22461e-16 -1 0
    outer loop
      vertex -39.23 2.56 0
      vertex 34.5 2.56 0
      vertex 34.5 2.56 18.18
    endloop
  endfacet
  facet normal -1.22461e-16 -1 0
    outer loop
      vertex -39.23 2.56 18.18
      vertex -39.23 2.56 0
      vertex 34.5 2.56 18.18
    endloop
  endfacet
  facet normal 0 0 1
    outer loop
      vertex 33.49 45.99 18.18
      vertex 34.5 47 18.18
      vertex -39.23 47 18.18
    endloop
  endfacet
  facet normal 0 0 1
    outer loop
      vertex 34.5 2.56 18.18
      vertex 34.5 47 18.18
      vertex 33.49 45.99 18.18
    endloop
  endfacet
  facet normal 0 0 1
    outer loop
      vertex 33.49 3.57 18.18
      vertex -38.22 3.57 18.18
      vertex 34.5 2.56 18.18
    endloop
  endfacet
  facet normal 0 0 1
    outer loop
      vertex 34.5 2.56 18.18
      vertex 33.49 45.99 18.18
      vertex 33.49 3.57 18.18
    endloop
  endfacet
  facet normal 0 0 1
    outer loop
      vertex -39.23 2.56 18.18
      vertex -38.22 3.57 18.18
      vertex -39.23 47 18.18
    endloop
  endfacet
  facet normal 0 0 1
    outer loop
      vertex -39.23 2.56 18.18
      vertex 34.5 2.56 18.18
      vertex -38.22 3.57 18.18
    endloop
  endfacet
  facet normal 0 0 1
    outer loop
      vertex -38.22 3.57 18.18
      vertex -38.22 45.99 18.18
      vertex -39.23 47 18.18
    endloop
  endfacet
  facet normal 0 0 1
    outer loop
      vertex -38.22 45.99 18.18
      vertex 33.49 45.99 18.18
      vertex -39.23 47 18.18
    endloop
  endfacet
  facet normal -1 1.22461e-16 0
    outer loop
      vertex -39.23 47 0
      vertex -39.23 2.56 0
      vertex -39.23 47 18.18
    endloop
  endfacet
  facet normal -1 1.22461e-16 0
    outer loop
      vertex -39.23 47 18.18
      vertex -39.23 2.56 0
      vertex -39.23 2.56 18.18
    endloop
  endfacet
  facet normal -1 1.22461e-16 0
    outer loop
      vertex 33.49 3.57 18.18
      vertex 33.49 45.99 18.18
      vertex 33.49 3.57 10.1
    endloop
  endfacet
  facet normal -1 1.22461e-16 0
    outer loop
      vertex 33.49 3.57 10.1
      vertex 33.49 45.99 18.18
      vertex 33.49 45.99 10.1
    endloop
  endfacet
  facet normal -1.22461e-16 -1 0
    outer loop
      vertex 33.49 45.99 18.18
      vertex -38.22 45.99 18.18
      vertex -38.22 45.99 10.1
    endloop
  endfacet
  facet normal -1.22461e-16 -1 0
    outer loop
      vertex 33.49 45.99 10.1
      vertex 33.49 45.99 18.18
      vertex -38.22 45.99 10.1
    endloop
  endfacet
  facet normal 1 -1.22461e-16 0
    outer loop
      vertex -38.22 45.99 18.18
      vertex -38.22 3.57 18.18
      vertex -38.22 3.57 10.1
    endloop
  endfacet
  facet normal 1 -1.22461e-16 0
    outer loop
      vertex -38.22 45.99 10.1
      vertex -38.22 45.99 18.18
      vertex -38.22 3.57 10.1
    endloop
  endfacet
  facet normal 1.22461e-16 1 0
    outer loop
      vertex -38.22 3.57 18.18
      vertex 33.49 3.57 18.18
      vertex -38.22 3.57 10.1
    endloop
  endfacet
  facet normal 1.22461e-16 1 0
    outer loop
      vertex -38.22 3.57 10.1
      vertex 33.49 3.57 18.18
      vertex 33.49 3.57 10.1
    endloop
  endfacet
  facet normal 0 0 1
    outer loop
      vertex -37.21 4.58 10.1
      vertex -38.22 3.57 10.1
      vertex 33.49 3.57 10.1
    endloop
  endfacet
  facet normal 0 0 1
    outer loop
      vertex 33.49 45.99 10.1
      vertex 32.48 4.58 10.1
      vertex 33.49 3.57 10.1
    endloop
  endfacet
  facet normal 0 0 1
    outer loop
      vertex -38.22 45.99 10.1
      vertex -38.22 3.57 10.1
      vertex -37.21 4.58 10.1
    endloop
  endfacet
  facet normal 0 0 1
    outer loop
      vertex -37.21 44.98 10.1
      vertex 32.48 44.98 10.1
      vertex -38.22 45.99 10.1
    endloop
  endfacet
  facet normal 0 0 1
    outer loop
      vertex -38.22 45.99 10.1
      vertex -37.21 4.58 10.1
      vertex -37.21 44.98 10.1
    endloop
  endfacet
  facet normal 0 0 1
    outer loop
      vertex 33.49 45.99 10.1
      vertex 32.48 44.98 10.1
      vertex 32.48 4.58 10.1
    endloop
  endfacet
  facet normal 0 0 1
    outer loop
      vertex 33.49 45.99 10.1
      vertex -38.22 45.99 10.1
      vertex 32.48 44.98 10.1
    endloop
  endfacet
  facet normal 0 0 1
    outer loop
      vertex 32.48 4.58 10.1
      vertex -37.21 4.58 10.1
      vertex 33.49 3.57 10.1
    endloop
  endfacet
  facet normal -1 1.22461e-16 0
    outer loop
      vertex 32.48 4.58 10.1
      vertex 32.48 44.98 10.1
      vertex 32.48 4.58 2.02
    endloop
  endfacet
  facet normal -1 1.22461e-16 0
    outer loop
      vertex 32.48 4.58 2.02
      vertex 32.48 44.98 10.1
      vertex 32.48 44.98 2.02
    endloop
  endfacet
  facet normal 1.22461e-16 1 0
    outer loop
      vertex -37.21 4.58 10.1
      vertex 32.48 4.58 10.1
      vertex -37.21 4.58 2.02
    endloop
  endfacet
  facet normal 1.22461e-16 1 0
    outer loop
      vertex -37.21 4.58 2.02
      vertex 32.48 4.58 10.1
      vertex 32.48 4.58 2.02
    endloop
  endfacet
  facet normal -1.22461e-16 -1 0
    outer loop
      vertex 32.48 44.98 10.1
      vertex -37.21 44.98 10.1
      vertex -37.21 44.98 2.02
    endloop
  endfacet
  facet normal -1.22461e-16 -1 0
    outer loop
      vertex 32.48 44.98 2.02
      vertex 32.48 44.98 10.1
      vertex -37.21 44.98 2.02
    endloop
  endfacet
  facet normal 1 -1.22461e-16 0
    outer loop
      vertex -37.21 44.98 10.1
      vertex -37.21 4.58 10.1
      vertex -37.21 4.58 2.02
    endloop
  endfacet
  facet normal 1 -1.22461e-16 0
    outer loop
      vertex -37.21 44.98 2.02
      vertex -37.21 44.98 10.1
      vertex -37.21 4.58 2.02
    endloop
  endfacet
  facet normal 0 0 1
    outer loop
      vertex -37.21 44.98 2.02
      vertex -37.21 4.58 2.02
      vertex 32.48 4.58 2.02
    endloop
  endfacet
  facet normal 0 0 1
    outer loop
      vertex 32.48 44.98 2.02
      vertex -37.21 44.98 2.02
      vertex 32.48 4.58 2.02
    endloop
  endfacet
endsolid OpenSCAD_Model
